<svg version="1.2" xmlns="http://www.w3.org/2000/svg" viewBox="0 0 1080 1080" width="1080" height="1080">
	<title>reshot-illustration-404-line-art-illustration-F962LXZBUG-ai</title>
	<style>
		.s0 { fill: #ffbd39 } 
		.s1 { fill: #d6d4ce } 
		.s2 { fill: #ffffff } 
		.s3 { fill: #19191b } 
		.s4 { fill: #232f2f } 
	</style>
	<g id="Business Cartoon 4">
		<g id="Artwork">
			<path id="&lt;Path&gt;" class="s0" d="m732.6 288.9c0 37 30 67.1 67 67.1 37.1 0 67.1-30.1 67.1-67.1 0-37-30-67.1-67.1-67.1-37 0-67 30.1-67 67.1z"/>
			<path id="&lt;Path&gt;" d="m451.8 897.5c0 37 30 67 67.1 67 37 0 67-30 67-67 0-37.1-30-67.1-67-67.1-37.1 0-67.1 30-67.1 67.1z"/>
			<path id="&lt;Path&gt;" class="s1" d="m844 956.6c0 19.1-51.2 34.5-114.3 34.5-63.2 0-114.4-15.4-114.4-34.5 0-19.1 51.2-34.6 114.4-34.6 63.1 0 114.3 15.5 114.3 34.6z"/>
			<path id="&lt;Path&gt;" class="s2" d="m758.5 939.7c0 0-4.2 8.4-17.8 10.6-13.6 2.1-22.6 11.4-22.6 11.4l-3.8 7.3c0 0 13.3 15.4 24.1 14.8 10.8-0.6 25.2-6.1 25.2-6.1l32.4-10.9c0 0 8.5-7.1 5-15.7-3.4-8.6-6.4-11.9-6.4-11.9 0 0-24.9 6-36.1 0.5z"/>
			<path id="&lt;Path&gt;" class="s2" d="m692.1 918.5c-4.4 2.9-9.4 4.6-14.4 6-5.1 1.5-10.2 2.8-14.7 5.6-4.5 2.7-8.2 7.1-8.9 12.3 0 0 9.1 13.6 23 14.2 13.9 0.6 15.6-2.5 15.6-2.5l39.5-12c0 0 9.1-3.4 8.5-11-0.6-7.6-3.5-12.7-3.5-12.7 0 0-43.6-0.9-45.1 0.1z"/>
			<path id="&lt;Path&gt;" class="s1" d="m760.6 344.2c3.6 9.4 4.3 19.9 1.9 29.6-0.2 1-0.4 1.9-1 2.7-0.5 0.8-1.4 1.4-2.4 1.3-1 0-1.9-0.8-2.4-1.8-0.4-0.9-0.5-2-0.7-3-1.1-8.3-3.6-16.5-8-23.7-1.2 2-3.7 3.2-6 2.7-2.2-0.5-4.1-2.6-4.3-4.9q-4.6 1.7-9.2 3.3c0.6-2.4-1.1-5.1-3.4-6.2-2.3-1.2-5-1.2-7.6-1.3q-7-0.1-14.1-0.1c-2.6-0.1-5.2-0.1-7.6-1.1-2.4-1-4.4-3.2-4.5-5.8 22.9-7.8 48.8-4.4 69.3 8.3z"/>
			<path id="&lt;Path&gt;" class="s3" d="m686.1 306l-8.7-4.5c0 0-3 12.8 10.1 18.6 0 0-3.9 13.7 10 18h14.1c0 0 17.2-2.4 18.9 11.1 0 0 8.2-2.7 10.7-5.9 0 0 1.6 7.2 3.5 7.1 1.9-0.2 2.8-3.1 2.8-3.1 0 0 13.7 16.1 11.4 29.6l6.7 1.8 0.8-1.2c0 0-1.6-10.7 4.9-10.7 6.5-0.1 9.1 9.7 9.1 9.7 0 0 3.4 16-14.5 21.3l0.9 2.5c0 0 15.2 1.2 21.7-10.1 6.5-11.3 11.4-28.6 11.1-28.6-0.3 0 0.8-20.3-12-28.2 0 0 6.8-24-3.6-31.9-10.3-7.8-20.4-8.4-20.4-8.4 0 0-7.8-1.1-14.2 4.8l-5.6-6-1.2 4c0 0-13.7-13.4-30-9.3-16.2 4.1-23.1 12.7-26.5 19.4z"/>
			<path id="&lt;Path&gt;" class="s0" d="m721 458.8c-0.3 0 1.3 4.8 2.6 5.9 1.3 1.1 10.9 3.2 10.9 3.2 0 0 2.5-2.3 2.9-4.6 0.5-2.2 0.5-4.5 0.5-4.5l-3.4-6.1c0 0-4.7 6.6-13.5 6.1z"/>
			<path id="&lt;Path&gt;" class="s0" d="m744.6 462.5c0.1 0.4 8.7 14.4 8.7 14.4 0 0 10.9-6.7 12.5-10 0 0-8.2-2.9-12.3-9.3z"/>
			<path id="&lt;Path&gt;" class="s0" d="m760.5 449.9c-0.3 0.4 15.1 4.5 15.1 4.5 0 0 4.4-5.8 8.9-6l-12.2-9.8c0 0-6.6 3.9-11.8 11.3z"/>
			<path id="&lt;Path&gt;" class="s0" d="m686.3 605.2l12.6 6.5c0 0-1.3-11.6 0-15 0 0 15.1 12.6 31.7 10.8l-0.5 2.5-13.4 14.7c0 0-1.6 2.6 2.7 3 4.4 0.3 12.6-4.6 12.5-4.2-0.1 0.5 14.5 18.1 14.5 18.1 0 0 9.6-3.1 8.9-19.8l5-6.2c0 0 16.2 2.2 33.2-4.2l-2 74.2-0.2 59.7 1.3 69.6 2.3 60.3 3.4 62.8c0 0-24.7 9.3-47.8 0l-6.5-55.8c0 0-3 13.3-3.9 33.9l-0.8 1.6c0 0-32.8 1.7-49-5.6l4-64.7 1.1-38.2-2.2-56.9-3.2-33.5c0 0-4.8-48.8-5.2-48.6-0.3 0.3-3.2-28.2-2.1-34.7 1.1-6.4 1.5-19 1.5-19z"/>
			<path id="&lt;Path&gt;" class="s0" d="m301.9 510.7c0 66.3 53.7 120 119.9 120 66.3 0 120-53.7 120-120 0-66.2-53.7-119.9-120-119.9-66.2 0-119.9 53.7-119.9 119.9z"/>
			<path id="&lt;Path&gt;" class="s1" d="m739.6 435.8c7.1-4.6 13-10.9 17.1-18.3 0.4-0.8 0.8-1.6 0.9-2.4 0.1-0.9-0.2-1.9-0.9-2.3-0.7-0.5-1.6-0.4-2.4-0.1-0.7 0.4-1.3 0.9-2 1.5-8.9 7.9-21.4 11.7-33.1 9.9 0 0 1 3.5 5.6 4.1 4.5 0.6 11.5-2.8 11.5-2.8 0 0 3.4-0.6 3.9 1.7 0.5 2.4-0.8 4.9-0.8 4.9l-1 1z"/>
			<path id="&lt;Path&gt;" class="s1" d="m703.8 466.2c-0.5-0.1-6.1 14.4-17.7 16.8 0 0-1.3 7.9-0.9 7.8 0.4-0.1 14.5-5.3 14.5-5.3z"/>
			<path id="&lt;Path&gt;" class="s1" d="m764.4 490.3c0 0 14.7 26.6 16.3 47.4 1.6 20.9-11.4 39.3-11.4 39.3 0 0 14.3-12.3 16.8-25 2.4-12.6 1.3-22.4 1.3-22.4l-8.8-20.9-2.6 0.7-10.2-19.1z"/>
			<path id="&lt;Path&gt;" class="s1" d="m379.6 650.1c-4.1-1.1-8.3-2.5-12.6-2.1-4.2 0.4-8.7 3.2-9.3 7.4-0.5 3.2 1.4 6.4 3.8 8.6 2.4 2.2 5.4 3.6 8.2 5.4 9.1 5.6 15.9 14.9 18.6 25.3 0.9 3.8 1.9 8.5 5.7 9.8 2.5 0.9 5.4-0.3 7.3-2.2 1.9-1.9 3.1-4.4 4.3-6.8 3.2-6.8 7-13.2 11.3-19.4 4.2-6.2 8.9-12 14.1-17.5q2.1-2.3 4.3-4.4c1.5-1.5 3.3-2.8 4.7-4.4-2.6-3-5.4-1.4-8.6-0.5q-6.1 1.8-12.4 2.8c-8.4 1.4-16.9 1.6-25.3 0.6q-7.1-0.7-14.1-2.6z"/>
			<path id="&lt;Path&gt;" class="s1" d="m326.4 644.4c0.3 2.9 2.3 5.5 5 6.5 1.4 0.5 2.9 0.6 4.4 0.3 2.6-0.7 4.7-2.9 5.3-5.5 0.5-2.6-0.5-5.5-2.6-7.2-2-1.6-4.4-1.5-6.9-1.4-2 0-3.2 1.2-4.2 2.9-0.7 1.3-1.1 2.9-1 4.4z"/>
			<path id="&lt;Path&gt;" class="s1" d="m380.9 788.4c-0.8 2.6-3.2 4.6-5.8 5.7-2.6 1.1-5.4 1.3-8.2 1.6-15.8 1.2-31.7 0.9-47.4-1-2.9-0.4-6.7-0.3-7.8 2.3-0.7 1.7 0 3.6 1.2 4.9 1.2 1.2 2.9 2 4.5 2.7q14.8 6.4 29.7 12.8c5.2-2.1 11-3.9 16.3-6 4.8-1.9 9.7-4 12.9-8.2 3.2-4.2 5-9.6 4.6-14.8z"/>
			<path id="&lt;Path&gt;" class="s1" d="m333.9 751.1c-1.3-0.5-2.5-1.1-3.8-1.2-1.3-0.1-2.8 0.3-3.6 1.3-1 1.3-0.8 3.3 0.2 4.6 1 1.4 2.5 2.3 4 3 10.4 5.4 22.2 8.2 33.9 7.9 3-0.1 6.1-0.3 8.8-1.4 1.5-0.6 2.9-1.5 4.1-2.6 0.4-0.4 0.9-0.9 0.6-1.5-0.3-0.5-0.9-0.7-1.4-0.9-1.6-0.5-3.4-0.3-5-0.4q-2.7-0.1-5.4-0.4-5.3-0.5-10.6-1.6-5.3-1-10.5-2.6-5.1-1.6-10.1-3.7-0.6-0.2-1.2-0.5z"/>
			<path id="&lt;Path&gt;" class="s1" d="m799.8 499.8q1.2 2.1 2.4 4.2c0.1 0.2 0.2 0.4 0.2 0.7 0 0.4-0.5 0.7-1 0.8-3.7 1.4-7.5 2.4-10.9 4.4-3.4 1.9-6.4 5-7.1 8.9-1.4-3.4-3-6.8-4.4-10.2 3.8 0.1 7.5-1.1 10.9-2.8 3.4-1.7 6.8-3.8 9.9-6z"/>
			<path id="&lt;Path&gt;" class="s1" d="m722.3 459.2c-2.6 0.3-4.7 2.3-5.7 4.7-1.1 2.3-1.3 5-1.4 7.5q-1.1 16.1-2.1 32.1-1 14-1.9 28c-1.3-15-1.2-30.1 0.3-45.1 1-9.8-0.6-19.5 0.7-29.2 3.4 0.5 6.6 1.4 10.1 2z"/>
			<path id="&lt;Path&gt;" class="s1" d="m737.2 918.4c-7.5 1.8-15.1 3.6-22.9 4.3-7.7 0.6-15.6 0.1-22.9-2.7 2.2-1.6 4.4-3.7 6.7-5.3 12.6 2.6 26.2 4.2 39.1 3.7z"/>
			<path id="&lt;Path&gt;" class="s1" d="m796 941.3c-1.8 1.7-4.3 2.3-6.7 2.8-12.1 2.3-24.4 3.2-36.6 2.8 2.1-2.5 4.7-5 7.4-6.9 11.1 2.7 23 2.2 33.8-1.7 0.9 1 1.3 2.1 2.1 3z"/>
			<path id="&lt;Path&gt;" class="s1" d="m267 904.4c0 0 60.2 61.8 165.1 37.9l1.3 9.7c0 0-72.7 45.7-168.5 0.8z"/>
			<path id="&lt;Path&gt;" class="s1" d="m367.8 880.7c-16.7-9.3-36.4-13.1-55.4-10.8-1.2 0.1-2.5 0.3-3.5 1-1 0.7-1.7 2-1.3 3.2 1 2.5 3.9 3.3 6.5 3.9 17.8 4.2 35.6 5.2 53.7 2.7z"/>
			<path id="&lt;Path&gt;" class="s0" d="m936.8 843.4h-92.8v-18.9h92.8z"/>
			<path id="&lt;Path&gt;" class="s1" d="m936.8 927.2h-92.8v-81h92.8z"/>
			<path id="&lt;Path&gt;" class="s1" d="m610.1 307.1h-99c-6.5 0-11.8-5.2-11.8-11.7v-65.6c0-6.5 5.3-11.8 11.8-11.8h99c6.5 0 11.8 5.3 11.8 11.8v65.6c0 6.5-5.3 11.7-11.8 11.7z"/>
			<g id="&lt;Group&gt;">
				<path id="&lt;Compound Path&gt;" fill-rule="evenodd" class="s3" d="m492 282.5v-57c0-10.5 8.5-19 19-19h86c10.5 0 19 8.5 19 19v57c0 10.5-8.5 19-19 19h-86c-10.5 0-19-8.5-19-19zm2.4 0c0 9.2 7.5 16.6 16.6 16.6h86c9.1 0 16.6-7.4 16.6-16.6v-57c0-9.2-7.5-16.6-16.6-16.6h-86c-9.1 0-16.6 7.4-16.6 16.6z"/>
				<path id="&lt;Path&gt;" class="s3" d="m241.7 350.8c0.1 0.7 1.2 0.7 1.3 0q0.2-0.8 0.3-1.7c0.1-0.6 0.1-1.3 0.1-1.9q-0.1-1.9-0.3-3.7c-0.1-0.9-1.4-0.9-1.5 0q-0.2 1.8-0.3 3.7c0 0.6-0.1 1.3 0.1 1.9q0.1 0.9 0.3 1.7z"/>
				<path id="&lt;Path&gt;" class="s3" d="m236.4 353.8q0.5 0 1 0.1 0.2 0 0.5 0 0.1 0 0.2 0 0.4 0 0.7-0.3 0.2 0 0.3-0.2 0.1-0.1 0.1-0.4 0-0.1-0.1-0.3-0.1-0.2-0.3-0.3c-0.2-0.2-0.4-0.3-0.7-0.3q-0.1 0-0.2 0-0.3 0.1-0.5 0.1-0.5 0-1 0.1-0.3 0-0.5 0.2c-0.2 0.1-0.3 0.3-0.3 0.5 0.1 0.2 0.1 0.4 0.3 0.6q0.2 0.2 0.5 0.2z"/>
				<path id="&lt;Path&gt;" class="s3" d="m245.7 353.8q0 0 0.1 0 0.6 0.1 1.2 0.2 0.3 0 0.6 0 0.2 0.1 0.5 0 0.4-0.1 0.6-0.4c0.3-0.3 0.3-0.8 0-1.1-0.1-0.2-0.3-0.4-0.6-0.4q-0.2-0.1-0.5-0.1-0.3 0-0.6 0.1-0.6 0-1.2 0.1-0.1 0-0.1 0c-0.2 0.1-0.4 0.1-0.6 0.3-0.1 0.1-0.2 0.3-0.2 0.5 0 0.2 0.1 0.4 0.2 0.6q0.2 0.2 0.6 0.2z"/>
				<path id="&lt;Path&gt;" class="s3" d="m241.1 357.7c0 0.1 0.1 0.2 0.2 0.4 0.3 0.3 0.9 0.3 1.1 0 0.2-0.2 0.3-0.4 0.3-0.6q0.1-0.3 0.1-0.5-0.1-0.4-0.1-0.8 0-0.8-0.1-1.5c0-0.2-0.1-0.4-0.2-0.5-0.2-0.1-0.4-0.2-0.5-0.2-0.2 0-0.4 0.1-0.5 0.2-0.2 0.1-0.2 0.3-0.2 0.5q-0.1 0.7-0.2 1.5 0 0.4 0 0.7 0 0.3 0 0.6 0 0.1 0.1 0.2z"/>
				<path id="&lt;Path&gt;" class="s3" d="m880.1 328.3c0.1 0.6 1.2 0.6 1.3 0q0.1-0.9 0.3-1.7c0.1-0.7 0.1-1.3 0-2q0-1.8-0.2-3.6c-0.1-1-1.4-1-1.5 0q-0.2 1.8-0.3 3.6c0 0.7-0.1 1.3 0 2q0.2 0.8 0.4 1.7z"/>
				<path id="&lt;Path&gt;" class="s3" d="m874.8 331.2q0.5 0.1 1 0.1 0.2 0 0.5 0.1 0.1 0 0.2 0 0.4 0 0.7-0.3 0.1-0.1 0.2-0.2 0.2-0.2 0.2-0.4 0-0.2-0.1-0.4-0.1-0.1-0.3-0.2c-0.2-0.2-0.4-0.3-0.7-0.3q-0.1 0-0.2 0-0.3 0-0.5 0-0.5 0.1-1 0.1-0.3 0-0.6 0.2c-0.1 0.2-0.2 0.4-0.2 0.6 0 0.2 0.1 0.4 0.2 0.5q0.3 0.2 0.6 0.2z"/>
				<path id="&lt;Path&gt;" class="s3" d="m884.1 331.3q0 0 0.1 0 0.6 0.1 1.2 0.1 0.3 0.1 0.6 0.1 0.2 0 0.5 0 0.4-0.2 0.6-0.5c0.3-0.2 0.3-0.8 0-1.1-0.2-0.2-0.4-0.3-0.6-0.4q-0.3 0-0.5 0-0.3 0-0.6 0-0.6 0.1-1.2 0.2-0.1 0-0.1 0c-0.3 0-0.5 0.1-0.6 0.2-0.1 0.2-0.2 0.4-0.2 0.6 0 0.2 0 0.4 0.2 0.5q0.2 0.2 0.6 0.3z"/>
				<path id="&lt;Path&gt;" class="s3" d="m879.5 335.1c0 0.2 0.1 0.3 0.2 0.4 0.3 0.3 0.8 0.3 1.1 0 0.1-0.2 0.2-0.3 0.3-0.6q0-0.2 0-0.5 0-0.4 0-0.7-0.1-0.8-0.1-1.6c-0.1-0.2-0.1-0.3-0.3-0.5-0.1-0.1-0.3-0.2-0.5-0.2-0.1 0-0.3 0.1-0.5 0.2-0.1 0.2-0.1 0.3-0.2 0.5q0 0.8-0.1 1.6 0 0.3 0 0.7 0 0.3 0 0.5 0 0.1 0.1 0.2z"/>
				<path id="&lt;Path&gt;" class="s3" d="m588.5 736.9q0.1-0.9 0.3-1.8c0.1-0.6 0-1.3 0-1.9q-0.1-1.8-0.3-3.6c-0.1-1-1.4-1-1.5 0q-0.2 1.8-0.2 3.6c0 0.6-0.1 1.3 0 1.9q0.2 0.9 0.3 1.8c0.1 0.6 1.2 0.6 1.4 0z"/>
				<path id="&lt;Path&gt;" class="s3" d="m584.3 738.5c-0.2-0.2-0.5-0.3-0.7-0.3q-0.2 0-0.3 0-0.2 0-0.5 0-0.5 0.1-1 0.1-0.3 0-0.5 0.2c-0.1 0.2-0.2 0.4-0.2 0.6 0 0.2 0.1 0.4 0.2 0.5q0.2 0.2 0.5 0.2 0.5 0.1 1 0.1 0.3 0 0.5 0 0.1 0.1 0.3 0.1 0.4 0 0.7-0.3 0.1-0.1 0.2-0.2 0.1-0.2 0.1-0.4 0-0.2 0-0.4-0.2-0.2-0.3-0.2z"/>
				<path id="&lt;Path&gt;" class="s3" d="m593.5 738.1q-0.2-0.1-0.4 0-0.3 0-0.6 0-0.6 0.1-1.2 0.2-0.1 0-0.2 0c-0.2 0-0.4 0.1-0.5 0.2-0.2 0.1-0.3 0.4-0.3 0.6 0 0.2 0.1 0.4 0.3 0.5q0.2 0.2 0.5 0.3 0.1 0 0.2 0 0.6 0.1 1.2 0.1 0.3 0.1 0.5 0.1 0.3 0 0.5-0.1 0.4-0.1 0.6-0.4c0.4-0.3 0.4-0.8 0-1.1-0.1-0.2-0.3-0.4-0.6-0.4z"/>
				<path id="&lt;Path&gt;" class="s3" d="m587.8 740.2c-0.1-0.1-0.3-0.2-0.5-0.2-0.2 0-0.4 0.1-0.5 0.2-0.1 0.2-0.2 0.3-0.2 0.5q-0.1 0.8-0.1 1.5-0.1 0.4-0.1 0.8 0 0.3 0.1 0.5 0 0.1 0 0.2c0.1 0.2 0.2 0.3 0.3 0.4 0.2 0.3 0.8 0.3 1 0 0.2-0.2 0.3-0.3 0.3-0.6q0.1-0.2 0.1-0.5 0-0.4 0-0.8-0.1-0.7-0.2-1.5c0-0.2 0-0.3-0.2-0.5z"/>
				<path id="&lt;Compound Path&gt;" fill-rule="evenodd" class="s3" d="m918.2 819.4c4.2 0 8.3 0 12.4 0.5q0.1 0 0.1 0c0.3-1.2 2-1.1 2.1 0.2 0.5 7.6 0.3 15.3 0.3 22.9q0 20 0 40 0 10.1 0 20.2v1.5q3.7 0 7.3 0c1.2 0.1 1.2 1.8 0 1.8q-3.6 0.1-7.3 0.1v0.3q0 3.2 0 6.3c0 3 0.3 6.3-0.2 9.3 0.4 0.8 0 1.8-1.1 1.7-3.3 0.3-6.8 0.2-10.2 0.1q-5-0.1-10-0.2c-5.9-0.1-11.8 0.3-17.7 0.2h-35.4c-5.5 0-11.1 0.2-16.5-0.4-0.5 1.2-2.6 1-2.6-0.5-0.1-5.4 0-10.9 0.1-16.3v-0.1q-21.1-0.1-42.2-0.1 0.8 14.9 1.6 29.8 0.1 1.1 0.1 2.2 0 0-0.1 0-0.7 0.3-1.4 0.6-0.5 0.2-1 0.3c2.9 4.9 6.3 10.8 6 17.2-0.2 2.8-1 5.4-2.4 7.4-1.3 1.9-3.3 3.5-6 4.7-2.1 1-4.3 1.8-6.5 2.5q-0.9 0.3-1.8 0.6-4.5 1.5-9.1 3c-11.3 3.7-24.7 7.8-38.4 9.7q-0.1 0.1-0.2 0.1c-0.3 0-0.6-0.2-0.8-0.4-2.4 0-4.7-1-6.9-1.9q-3.5-1.5-6.6-3.5c-4.5-2.9-8.2-6.2-10.8-10-0.3-0.3-0.3-0.6-0.1-1q0.1-0.2 0.4-0.4c0.2-1.6 1.1-3.2 1.8-4.3q1.3-2.2 3.4-4.2c5.1-5 11.8-7.2 19.4-9.4l0.2-0.1c3.5-1 7.1-2 10.5-3.5 2.9-1.3 5.6-3.1 8.2-5.4q-3.1-0.8-6.1-1.9-0.3-0.2-0.7-0.3-0.1-0.1-0.2-0.2-0.1-0.1-0.2-0.3-0.1-0.5-0.2-1-0.6-3-1.1-5.9c-1.5-8.1-2.6-16.3-3.5-24.5h-3.2q-0.6 5.3-1 10.5 0 0 0 0c0 0.4-0.2 0.8-0.6 1-0.2 0.1-0.6 0.2-1.1 0.3 1.9 3.6 3.3 7.7 3 11.9-0.2 2.8-1 5.4-2.3 7.3-1.4 2-3.4 3.6-6 4.8-2.1 1-4.4 1.8-6.6 2.5q-0.9 0.3-1.8 0.6-4.5 1.5-9 3c-11.3 3.7-24.8 7.8-38.5 9.7q-0.1 0-0.2 0-0.4 0-0.7-0.3c-2.4-0.1-4.7-1-7-2q-3.5-1.4-6.6-3.4c-4.5-2.9-8.1-6.3-10.8-10-0.2-0.3-0.2-0.6-0.1-1q0.2-0.2 0.4-0.4c0.2-1.6 1.2-3.3 1.8-4.3q1.4-2.2 3.4-4.2c5.1-5 11.8-7.2 19.4-9.4l0.3-0.1c3.5-1 7.1-2 10.4-3.5 2.5-1.2 4.8-2.5 7-4.3-2-0.5-3.9-1.1-5.7-1.9-0.4-0.1-0.7-0.5-0.6-1q0.3-2.9 0.6-5.8h-255q0 4 0 8-0.1 9.5-0.1 19 0 4.9 0 9.8c0 2.1 0.1 4.3 0 6.4q0 1.7-0.1 3.3-0.8 0.4-1.5 0.7-0.3 0.2-0.7 0.4c-19.3 9.8-40.5 16.1-62.1 18.6-23.3 2.7-47 0.8-69.5-5.6-11.4-3.2-23-7.3-33.3-13.1q-0.6-0.3-1.2-0.7-0.4-0.2-0.8-0.5-0.1-0.1-0.1-0.3-0.1-0.8-0.2-1.6c-0.1-3.1 0-6.3 0-9.4q0-4.5 0-9.1c-5.9-2.7-12.8-4.4-18.5-0.3-2.8 1.9-4.1 4.8-3.9 8.1 0.1 3.5 0.6 6.8 0.2 10.2-1.6 12.7-10.6 23.9-22.3 28.9-13.1 5.7-28.7 4.3-41.4-2.1-6-3-11.6-7.8-12.5-14.8-0.9-6.9 3.9-12.1 9.5-15.2 6.5-3.6 13.8-5.5 21.1-6.2 3.1-0.4 7-0.8 8.5-4 1.5-3.2-0.6-6.6-3.9-7.5-0.3 0-0.4-0.2-0.6-0.3q-0.5 0.6-1.1 1c-1.7 1.2-3.9 1.7-6 1.6-2.3 0-5-0.6-6.9-1.9q0 0-0.1 0c-0.4-0.1-0.8-0.6-0.5-1.2q0.6-1.2 1.2-2.3-0.6-0.2-1.2-0.4-0.6-0.2-1.3-0.4-0.7-0.3-1.3-0.5c-0.5-0.2-1-0.3-1.5-0.6-0.2-0.2-0.4-0.5-0.3-0.8 0.1-0.3 0.4-0.6 0.7-0.6 0.5 0 1 0.2 1.5 0.3q0.7 0.2 1.4 0.4 0.6 0.2 1.3 0.4c0.5 0.2 1 0.3 1.5 0.5q0 0.1 0 0.1 1.3-2.4 2.5-4.7 0 0-0.1 0l-2-0.9c-0.6-0.3-1.3-0.5-1.9-0.9-0.4-0.3-0.5-0.6-0.3-1 0.1-0.4 0.5-0.5 0.9-0.5 0.7 0.2 1.4 0.5 2 0.8q1 0.4 2 0.8 0.2 0.1 0.3 0.1 0.5-0.8 1-1.7c0.5-0.9 1.6-0.5 1.8 0.3 0.2-0.3 0.6-0.4 1-0.2 1.9 0.7 4 1.6 5.5 3.1 2.1 2.1 2.3 5 1.2 7.4 1.5 0.3 2.8 0.9 3.9 2 2.2 2.2 2.8 5.6 1.5 8.5-1.4 3-4.4 4.4-7.4 5-3.6 0.6-7.2 0.8-10.7 1.6-3.8 0.9-7.5 2.1-10.9 3.8-2.9 1.4-5.9 3.2-7.9 5.8-2.2 2.8-2.8 6.2-1.9 9.6 2 7.2 9.3 11.2 15.8 13.7 13.3 5 29.3 4.7 41.2-3.7 5.3-3.7 9.5-8.9 12.1-14.8 1.3-3 2.2-6.2 2.5-9.4q0.2-2.4 0-4.8c-0.1-1.9-0.5-3.9-0.3-5.8 0.2-6.2 5.6-10.4 11.3-11.3 4.7-0.7 9.1 0.5 13.3 2.5q0-11.8-0.1-23.6h-5.1c-55.3 0-110.6 0.6-166-0.1-1.4 0-1.4-2.2 0-2.2 57.1-0.6 114.1-0.2 171.1-0.1q0-5.9 0-11.9 0-9.5-0.1-18.9c0-4.5-0.1-9 0-13.5q0-0.9 0.1-1.8 1.2-0.8 2.4-1.4c10.3-5.9 21.9-10 33.3-13.2 22.5-6.3 46.2-8.2 69.5-5.5 21.6 2.4 42.8 8.8 62.1 18.6q1.3 0.6 2.5 1.2 0 1.6 0 3.2v0.1c0.1 4.9 0 9.9 0 14.9q-0.1 14.1-0.1 28.2h175.9q39.6 0 79.3-0.1c2-20.5 3.2-41.1 3.8-61.7q0.9-31.2-0.4-62.4-1.2-31.2-4.5-62.2c-2.1-20.2-4.9-40.3-6.1-60.5-0.9-17.5-0.7-35.3 2.8-52.5q-0.9-1-1.8-2.1c-1.6-2.2-2.6-5-2.6-7.8 0-3.2 1.2-6.2 2.6-9.1 4.6-10.2 7.6-20.9 9.4-32 1.7-11.2 2.4-22.6 3.1-34 0.7-10.9 1.2-22.1 2.8-33.1q-0.4 0.2-0.9 0.4c-9.4 4.2-19.2 7.7-29.4 9-5.6 0.8-11.3 0.9-16.9 0-4.8-0.8-9.9-2.2-13.7-5.3-3.8-3.2-4.9-8.1-3-12.7 1.9-4.7 6-7.7 10.1-10.5 10-6.7 20.2-13.2 30.4-19.5 10.3-6.3 20.6-12.5 31.2-18.2q0 0 0 0c2-2.3 3.4-5 4.4-7.9q-2.1-1.1-4-2.6-0.1 0.2-0.2 0.3-0.1 0.2-0.2 0.3c-0.2 0.1-0.3 0.2-0.5 0.2-0.3 0-0.6-0.2-0.6-0.5-0.2-0.4 0.1-0.8 0.4-1.1-3.1-2.6-5.9-5.6-8.2-8.7q-0.6-0.9-1.1-1.7-0.4 0.4-0.8 0.8-0.8 0.9-1.7 1.7-0.5 0.4-0.9 0.8c-0.4 0.3-0.7 0.6-1.2 0.7-0.5 0.2-1.2-0.4-1-0.9 0.2-0.5 0.5-0.8 0.9-1.2q0.4-0.4 0.8-0.8 0.8-0.9 1.7-1.7 0.5-0.6 1-1.2c-2.1-3.6-3.8-7.5-5-11.5-1.8-6.4-2.2-13.2-2.3-19.8-0.1-7.1 0.2-14.2 0.7-21.3q0.4-5.3 1.1-10.6c0.2-2 0.4-4.1 0.7-6.1-1.3 1.7-3 3-4.8 3.9q-2.2 0.9-4.5 1.1c-1.4 0.1-3.5 0.2-4.5-0.9-0.3-0.4-0.2-0.9 0.3-1.1 0.6-0.2 1.4-0.1 2 0q1 0.1 2 0c1.3-0.1 2.7-0.4 3.9-0.9 2.1-1 3.8-2.6 5-4.6q-1.1-1.2-1.9-2.7c-0.9-0.2-1.7-0.5-2.6-0.6 0 0-0.4-0.1-0.2 0q-0.2-0.1-0.3-0.1-0.2 0-0.4 0-0.2 0-0.3-0.1-0.1 0-0.1 0-0.4 0-0.8-0.1c-0.2 0-0.5 0-0.7-0.2-0.4-0.2-0.6-0.8-0.2-1.1 0.5-0.4 1.2-0.4 1.8-0.5 0.6 0 1.1 0.1 1.6 0.2q0.7 0.1 1.3 0.3c-1-3-1.1-6.3-0.2-9.3-3.2-1.3-6-3.6-7.9-6.5-2.6-4-3.4-9-2.3-13.5 0.1-0.8 1.1-0.9 1.6-0.5 1.9 1.6 3.9 2.8 5.9 4-0.6-2.7-0.9-5.4-0.8-8.2 0.1-2.3 0.1-6.1 2.9-6.9 0.6-0.1 1.1 0.7 0.6 1.1-1.8 1.4-1.7 4.6-1.7 6.7 0 2.7 0.3 5.3 1 7.9 2.1-4.1 5-7.9 8.5-10.9 6.8-5.9 15.6-9.2 24.6-8.9 8.4 0.3 17.1 3.3 23.2 9q0-0.3 0.1-0.6c0-0.6 0-1.2 0.1-1.8 0-0.6 0.7-1.1 1.3-0.7 0.7 0.4 1.3 0.9 1.9 1.4q0.8 0.7 1.6 1.5 0.8 0.9 1.5 1.8c0.2 0.3 0.3 0.6 0.5 0.9q0 0.1 0.1 0.2c3.2-2.8 7.2-4.2 11.4-4.5q-0.1-0.2-0.1-0.5c0.4-2.2 1.6-4.2 3.2-5.8 0.8-0.8 1.8-1.5 2.8-2 0.9-0.5 2.1-1 3.2-0.9 0.6 0 1 0.9 0.4 1.2-0.5 0.2-1 0.3-1.5 0.5-0.4 0.2-0.9 0.4-1.4 0.6q-1.3 0.7-2.3 1.7c-1.5 1.4-2.5 3.2-2.9 5.1q0 0-0.1 0.1 0.2 0 0.4-0.1c8.8-0.1 19.1 3.4 24.2 10.9 5.7 8.3 4.6 19.4 1.9 28.7 1.6-0.6 3.2-1.5 4.5-2.7 2.1-1.8 3.4-4.1 4.7-6.6 0.3-0.5 1.4-0.3 1.3 0.4-0.4 3.1-2.4 5.7-4.7 7.7-1.6 1.3-3.4 2.3-5.3 2.9 4.5 3 7.7 7.5 9.6 12.5 4.7 12.6 0.2 26.3-5.5 37.8-2.6 5.3-5.8 10.6-10.9 13.9-2.8 1.7-5.8 2.6-9 3-3 0.4-6.3 0.6-9.3 0.2-1.2 2.7-2 5.4-2.5 8.3q-0.3 2.3-0.3 4.6 0 1.2 0.1 2.3c0 0.4 0.1 0.9 0.1 1.3 3.3 4.2 6.6 9.4 9.9 13.4q0.1 0.1 0.1 0.2c2.8 0.4 5.4 1.7 7.7 3.5 2.7-0.7 5.8-0.9 8.4-0.1 0.3 0.1 0.5 0.3 0.6 0.5q0 0.1 0.1 0.1c1.5 2.6 2.6 5.5 3.5 8.4 1 2.8 2 5.8 1.5 8.8 0 0.7-0.9 1-1.4 0.7q3.1 5.7 6 11.5c4.6 9.4 8.7 19.1 12.2 28.9q0.1 0.2 0.1 0.4 0 0 0 0.1 0 0 0 0 0 0 0 0-0.1 0.4-0.4 0.6c-2.1 2.2-4.9 3.9-7.5 5.6q-0.4 0.2-0.8 0.5c4.2 8.3 8.2 16.7 10.5 25.7 2.4 9.2 3.2 19.1 0.9 28.4-2.3 9.3-7.9 16.9-14.5 23.7q-1.8 1.8-3.7 3.5 0.1 0.2 0.1 0.3c1.1 9.1 4.1 17.8 8.7 25.6 0.3 0.3 0.2 1-0.3 1.2q-4.2 1.9-8.6 3.4-1.3 35.5-1.8 70.9-0.9 64 0.7 128.1c0.8 31 2.1 62 3.7 93q21.2 0 42.3 0 0.1-1.6 0.1-3.2 0-19.9 0-39.9c0-13.3-0.2-26.7 0.2-40q0.1-0.2 0.1-0.4c0.1-0.4 0.3-0.8 0.8-0.9 3.1-0.6 6.5-0.3 9.7-0.3h4.1c-4-3.2-7.6-7-10.9-11-13.5-16.3-21.6-37-22.2-58.2 0-1 1.1-1.2 1.7-0.7 8.4 1.9 16.4 5.3 23.9 9.6 6.8 4 13.4 9 18.9 14.7 0.6-8.7 2.1-17.3 4.3-25.8 4-15.1 10.6-29.5 19.6-42.2 0.8-1.1 2.5-0.2 1.9 0.9 5 6.5 8.1 14.6 10.4 22.3 4.3 14.5 5.2 29.8 4.6 44.9 5.6-5.8 12.2-10.7 19.1-14.8 7.4-4.3 15.5-7.7 23.9-9.6 0.5-0.5 1.6-0.3 1.6 0.7-0.6 21.2-8.6 41.9-22.2 58.2-3.3 4-6.9 7.7-10.9 11zm-718 107.9c1-1.7 1.1-3.8-0.3-5.3-1.3-1.5-3.2-2.3-5-2.9-0.3-0.2-0.5-0.5-0.6-0.8q-3 5.4-6.2 10.7c1.1 0.3 2.1 0.7 3.2 0.9 1.2 0.3 2.4 0.4 3.6 0.3 2-0.2 4.2-1.1 5.3-2.9zm231.8-20.5q0-1.2 0-2.4-0.1-5.8-0.1-11.7 0-9.5 0-19c0-4.6-0.1-9.2-0.1-13.8q0 0 0 0c-10.4-5.4-21.4-9.8-32.7-13.1-22.1-6.3-45.3-8.5-68.2-6.2-11.6 1.2-23.1 3.5-34.2 6.8-10.2 3.1-19.9 7.2-29.6 11.5 0.1 5.7 0 11.5-0.1 17.2q0 14.1 0 28.3-0.1 1.2-0.1 2.4 0 3.8 0 7.6 0 8.5 0 17.1 0 0.9 0 1.8v0.5q0 4.6 0 9.2c0 3 0.1 6.1-0.1 9.1q0.1 0.1 0.3 0.1c9.7 4.3 19.4 8.5 29.6 11.5 11.1 3.4 22.6 5.7 34.2 6.8 22.9 2.3 46.1 0.2 68.2-6.2 11.3-3.2 22.3-7.6 32.7-13q0.1-0.1 0.3-0.1c-0.2-3 0-6 0-8.9q0-5.5-0.1-11 0-12.2 0-24.5zm368.3-405.8q-3.1 1.8-6.3 3.4-6.8 3.2-14 5.3c3.9 6.8 6.6 14.7 7.8 22.4 1.1 6.9 1 14.1-1 20.9-2 6.7-5.8 12.4-10.3 17.7-4.6 5.4-9.5 10.7-14.5 15.8-2.6 2.6-5.2 5.1-7.9 7.5-2.6 2.3-5.4 4.9-8.4 6.6q-0.4 0.2-0.7 0.1c-7.8 3-13.5 9.7-19 15.7q-2.6 2.8-5.1 5.5c-0.9 0.9-1.9 1.8-2.7 2.9-0.7 1.1-0.3 1.7 0.9 1.7 4.4 0.1 9.1-2 12.6-4.4 0.9-0.6 1.7 0.4 1.5 1.2 2.5 2.8 4.8 5.9 7.1 8.9q1.9 2.5 3.8 4.9 1 1.3 1.9 2.5c0.3 0.4 0.6 0.7 0.9 1 2.3-2.1 4.4-4.4 5.8-7.3 0.8-1.7 1.4-3.5 1.7-5.4q0.3-1.4 0.3-2.8c0.1-0.8 0-1.7 0.1-2.5-0.3-0.3-0.5-0.8-0.1-1.3 7.2-8.9 15-17.4 23-25.6 6.8-6.9 14.1-13.2 20.8-20.2 6.6-6.8 11.6-14.6 13.3-24 3.3-17.6-3.7-34.9-11.5-50.5zm-7.1 82.1q-2.5 2.3-5 4.7-5.8 5.5-11.4 11.3-7.8 8-15.1 16.5c6.8-0.2 13.5-0.5 20.2-1.9q5.5-1.1 10.9-2.9c0.2-0.5 0.9-0.6 1.3-0.4q3.8-1.3 7.4-2.9c-4.4-7.5-7.2-15.8-8.3-24.4zm-62.4 23.2c4.8-8.5 9.2-17.5 9.5-27.4 0.4-10.7-3-21.2-5.1-31.6-2-10.2-3.7-20.5-4.9-30.9-1.7-15.9-2.2-32.3-0.1-48.3-1.9-0.1-3.6-0.3-5.2-1.3-2.5-1.7-3.7-4.6-4.7-7.3-1.8-0.1-3.6-0.4-5.3-0.8q-1-0.3-1.9-0.6-0.4 17.5-0.8 35-0.4 15.8-0.8 31.6c-0.2 10-0.5 20.2-2.2 30.1-1.7 9.7-4.8 19-7.1 28.5-1 4.1-1.9 8.2-2.5 12.4 4.3 3.9 9.6 6.9 15 8.7 2.8 0.9 5.6 1.5 8.5 1.8q2.1 0.3 4.2 0.3c1.1 0 2.3-0.2 3.4-0.2zm-57.8-113c3.9-0.8 7.7-1.9 11.4-3.2 0.1-2.9-0.2-5.7-0.8-8.5q-0.5-2.2-1.3-4.4c-0.4-1-0.9-2-1.3-3q-3.3 2.4-6.6 4.7-2.7 1.8-5.3 3.6c-1.9 1.1-3.7 2.5-5.7 3.2-0.7 0.3-1.2-0.7-0.7-1.2 1.5-1.5 3.6-2.5 5.4-3.7q2.7-1.7 5.3-3.5 5.4-3.6 10.6-7.6c3.5-2.6 6.9-5.5 10.2-8.3q2.5-2.1 4.8-4.2 1.3-1.2 2.6-2.3c0.5-0.5 1-1.1 1.6-1.5 0-0.5 0.3-0.9 0.9-0.9 1.1 0.1 2.1 0.6 3.1 1q1.8 0.7 3.6 1.4c2.2 0.8 4.5 1.5 6.8 2 4.4 0.7 8.9 0.3 12.7-1.9 3.6-2 6.4-5.3 7.7-9.2 1.5-4.3 1-8.7-0.5-12.9-0.3-0.6 0.3-1 0.8-1 1.7-1.5 2.1-4.4-0.5-5.3-1.3-0.5-2.4 0.2-3.5 0.8-1 0.5-2.1 1-3.2 1.4-4.4 1.2-9.3-0.1-12.6-3.3q-0.2-0.3-0.2-0.5 0 0 0-0.1c-0.1-2.9-0.1-5.7-1.2-8.5-0.4-0.8-1.1-3-2.2-3-1.5 0-1.2 2.8-1.2 3.6-0.4 5.2-2.4 10-5.7 13.8 0 0.4-0.1 0.8-0.5 1-11 6.4-22.1 12.6-32.9 19.3-9.6 5.9-19 12.1-28.4 18.4-4 2.7-8.5 5.8-9.9 10.7-1.5 5 1.5 8.9 5.8 11 4.5 2.3 9.8 3.2 14.8 3.5 5.4 0.3 10.8-0.3 16.1-1.4zm91.7-47.3q-1.3 1.5-2.6 3c2 0.9 3.9 1.8 6 2.4 2 0.7 4 1.1 6 1.6 0.3-0.4 1-0.4 1.3 0q0 0.1 0 0.1 0.2-0.3 0.4-0.5c1.9-2.1 4.1-4 6.7-5q0 0 0.1 0-0.7-0.4-1.3-0.7-1.6-1-3.2-2.2c-2.1-1.5-4.1-3.2-5.8-5.2-2.8 1.8-5.3 4.1-7.6 6.5zm24 5.2q-0.4-0.7-0.8-1.4-0.5-0.4-1-0.8-0.2 0.1-0.5 0.1-0.3 0-0.6 0-1.1 0.1-2.2 0.5c-4.1 1.4-7.1 5.5-9.6 8.8-5.6 7.7-11 16.7-20.5 19.8-4.6 1.5-9.6 1.2-13.9-0.8-3.4-1.5-6-4-7.9-7.1q-1 9.9-1.1 19.8c0 21.4 3.2 42.6 7.8 63.3 2.2 10.1 4.9 20.4 3.3 30.8-1.3 7.7-4.6 14.9-8.4 21.7 3.5-3 7.2-5.6 11.7-7.1 1.3-1.2 2.8-2.2 4.2-3.3q2.2-1.9 4.4-3.9 4.4-4 8.5-8.3c4.6-4.8 9.2-9.6 13.5-14.8 4.4-5.2 8-11 9.6-17.8 1.7-6.8 1.6-13.9 0.2-20.7-1.5-7-4.3-13.4-7.1-19.9q-1.2 0.3-2.4 0.6c-0.5 0.1-0.9 0-1.1-0.4q-0.2 0-0.3-0.2c-1-1.8-1.8-3.7-2.7-5.5q-1.3-2.6-2.6-5.2c-1.8-3.6-3.8-7.1-5.6-10.7-0.6-1.1 1-2 1.7-0.9 2 3.4 3.9 7.1 5.7 10.7q1.4 2.7 2.6 5.4c0.7 1.5 1.5 2.9 2.1 4.4 5.9-1.4 11.7-3.5 17.2-6.1q3.3-1.6 6.4-3.3 0.6-0.4 1.1-0.7 0.4-0.2 0.7-0.4c2.3-1.4 4.5-3.1 6.8-4.5q-2.9-7.8-6.1-15.4-5.9-13.7-13.1-26.7zm-41 11.1q-1 0.3-2.1 0.5c1.1 2.1 2.2 4.3 3.4 6.3q1.1 1.8 2.2 3.5 0.5 0.9 1.1 1.8c0.3 0.4 0.7 0.9 0.9 1.5 4.3-1.6 8.1-4.8 11.3-8.5-0.9-0.2-1.8-0.7-2.6-1.1q-1.9-1-3.5-2.2c-1.9-1.5-3.5-3.3-4.8-5.3-1.7 1.5-3.7 2.7-5.9 3.5zm-9-0.6q-0.2 1.9-1 3.5-0.5 0.9-1 1.7c-0.3 0.5-0.4 1-0.8 1.5-0.1 0.4-0.5 0.8-1.1 0.6-0.7-0.3-1.6-0.5-2.4-0.6 2.5 3.9 6.5 7 11 8.1 2.9 0.7 5.6 0.5 8.1-0.1-0.2-0.3-0.4-0.7-0.7-1q-0.6-0.9-1.2-1.8-1.1-1.8-2.1-3.6c-1.4-2.2-2.6-4.6-3.6-7.1-1.8 0.1-3.6-0.3-5.2-1.2zm18.2-6.2q-1 1.2-2.1 2.2c1.3 1.9 2.9 3.6 4.7 5q1.5 1.2 3.2 2 0.8 0.5 1.7 0.8 0.6 0.3 1.3 0.5 0.7-0.8 1.3-1.7c2.4-3.2 4.5-6.5 7-9.6-2.2-0.3-4.3-0.9-6.4-1.6-2.2-0.7-4.5-1.6-6.5-2.8-1.4 1.7-2.7 3.5-4.2 5.2zm21.8-18.8q-0.6 0.1-1.2 0.4-1 0.3-1.9 0.7-0.8 0.3-1.6 0.8-0.2 0-0.4 0.1c1.8 1.7 3.6 3.3 5.5 4.7q1.6 1.1 3.3 2.1 0.8 0.5 1.7 1c0.3 0.2 0.6 0.3 0.8 0.5q0.7-0.1 1.3-0.1h0.2c0.3-0.2 0.7-0.2 1.1 0.1q1.1 0.9 2.2 1.7 0 0 0 0 0.9 0.6 1.7 1.2c-0.1-2.3-1-4.6-1.7-6.6-0.8-2.4-1.8-4.7-2.6-7.1-2-0.2-3.9-0.3-5.9-0.1q-0.4 0.1-0.8 0.2-0.9 0.1-1.7 0.4zm-2-1.6c-1.7-1.2-3.6-2-5.7-2.5-7.1 10.6-17.7 17.8-29.6 22.4-0.5 0.2-0.9-0.2-1-0.7q-0.1-0.1-0.2-0.2c-0.3-0.4-0.5-0.9-0.7-1.3q-0.4-0.7-0.7-1.3-0.3-0.6-0.6-1.2-0.9 1.4-1.9 2.6c0.8 1.2 1.3 2.6 1.7 4 0.3 1 0.6 2 0.7 3.1 4.2 1.7 8.3 1 12-1.6 3.4-2.3 5.8-5.7 8.3-8.9 2.4-3.1 4.9-6 7.9-8.6 2.2-1.9 4.6-3.6 7.2-4.8q0.9-0.4 1.8-0.8 0.3-0.1 0.6-0.2 0.1 0 0.2 0zm-7.7-4.2c-3-3.7-5.9-8.6-8.9-12.2-6.2 6-12.7 11.9-19.7 17 0.7 2.9 0.7 6 0.1 8.9q-0.5 2-1.4 3.9 0 0 0 0c0.3 0.3 0.5 0.6 0.6 0.9l0.7 1.3q0.3 0.7 0.6 1.3 0.3 0.6 0.6 1.2c10.9-5.3 20.2-11.5 27.4-21.1q0.2-0.3 0.4-0.6-0.2-0.3-0.4-0.6zm-80.9-109.8c-1.1 3.7-0.4 7.8 1.8 11q0.6 0.9 1.2 1.5 0.8 0.9 1.6 1.5c5.9 4.4 14.9 2.1 21.9 1.9 4.3-0.2 8.8 0.4 12.4 3.1 2.5 2 4.4 4.9 4.5 8 3.5-1.3 6.5-3.4 9.3-5.9q0.2-0.2 0.4-0.4c0.5-0.1 1 0.1 1 0.7q0.1 0.4 0.1 0.8c0.3 1.9 0.9 3.8 1.9 5.6q0.3 0.3 0.5 0.7 0.1 0 0.1 0.1c0.1-0.1 0.2-0.2 0.2-0.2q0.3-0.5 0.5-0.9 0.4-0.7 0.9-1.4 0.1-0.1 0.2-0.3 0.2-0.4 0.5-0.7c0.2-0.1 0.5 0 0.7 0.2q0.3 0.4 0.6 0.8c6.6 8.5 13.3 18.3 11.8 29.6 1.8 0.7 3.6 1 5.5 1.1q0.1 0 0.1 0.1c-0.5-2.6-1-5.3-0.1-7.8 0.8-2 2.2-3.8 4.4-4.3 4.1-0.9 7.7 2.6 9.5 5.9 1.9 3.6 2.4 7.6 1.7 11.5-0.8 4.1-3 7.6-6.2 10.2-2.2 1.7-4.7 3.2-7.1 4.7 1.8-0.1 3.7-0.1 5.5-0.4 3.3-0.6 6.5-1.7 9.1-3.8 4.3-3.5 7-8.7 9.3-13.7 2.8-5.9 5.2-12.1 6-18.7 1.3-10.3-1.9-22-11.2-27.7q-0.2 0-0.5 0.1c-0.9 0.1-1.1-1.4-0.3-1.6 0.2-0.3 0.5-0.4 0.8-0.4 0.8-5.3 2.1-10.7 1.8-16.1-0.2-4.4-1.4-8.9-4.1-12.5-2.6-3.4-6.5-5.7-10.5-7.1-7.4-2.7-17.3-3.7-23.7 1.8q-0.2 0.1-0.4 0.2-0.1 0-0.1 0c-0.2 0.2-0.6 0.2-0.9 0-0.4-0.6-0.9-1.1-1.4-1.6q-0.7-0.9-1.4-1.6-0.7-0.8-1.5-1.6-0.2-0.1-0.4-0.3-0.1 0.1-0.1 0.3-0.2 0.9-0.3 1.7 0 0 0 0.1-0.2 1-0.3 1.9-0.1 0.7-0.2 1.5c-0.2 0.7-1.5 0.5-1.4-0.2q0.1-1.1 0.3-2.2c-3.5-2.9-7.5-5.4-11.8-6.9-8.1-3.1-17.3-3-25.4 0.3-7.7 3.3-14.2 9.2-17.9 16.6 0 0.4-0.4 0.7-0.9 0.6-2.9-0.7-5.5-2.4-7.9-4.2-0.4 3.6 0.4 7.3 2.4 10.4 2 3.3 5.4 5.7 9.1 6.9 0.9 0.2 0.5 1.6-0.4 1.4q-0.6-0.2-1.2-0.3zm18.7 96q0.2-0.4 0.5-0.9c0.2-0.3 0.6-0.4 1-0.2 0.3 0.1 0.4 0.6 0.2 0.9l-0.7 1.1q1.7 1.3 3.4 2.6 0.4-1.7 0.5-3.4c0.2-1.5 0-3.3 1-4.5 0.9-1.1 2.3-1.4 3.6-0.7 1.1 0.8 1.8 2.2 2.3 3.4 1.2 2.9 1.9 6.3 1.2 9.4 2.2 1.6 4.8 2.4 7.5 2.4q2.1 0 4-0.6c1.4-0.5 2.5-1.4 3.9-1.9 2.5-0.9 5.4 0.4 6.3 2.9 0.8 2.1-0.1 4.5-2.1 5.5q0.3 0.5 0.4 1c6.7-5.7 13.3-11.3 19.6-17.5q0-0.2-0.1-0.4-0.1-1.3-0.1-2.6 0-2.5 0.4-5c0.5-3 1.4-6 2.8-8.7-0.2-0.6 0.1-1.4 0.8-1.5q0.3 0 0.6 0c2.6-2.6 6.1-4.1 9-6.3 5.6-4 7.8-11.1 5.5-17.7-1-3-3.9-7-7.6-6.5-4.7 0.6-4.1 6.8-3.7 10.1 0.1 0.4-0.2 0.5-0.4 0.6 0.1 0.5-0.2 1-0.9 1.1-2.4 0.2-4.9-0.5-7-1.5-0.4-0.2-0.5-0.7-0.5-1.1 1.5-8.9-2.7-16.8-7.6-24q0.1 1.5 0.1 2.9 0 1.6-0.3 3.1c-0.2 1-0.4 2.2-1 3-0.3 0.5-1.2 0.4-1.2-0.4 0-0.9 0.4-1.9 0.5-2.8q0.3-1.4 0.4-2.9 0.1-2.9-0.7-5.7 0-0.1 0-0.2-0.5-0.7-0.9-1.3-0.5 0.7-0.9 1.4c-0.4 0.6-0.9 1.4-1.7 1.4-0.8 0-1.2-0.6-1.6-1.2-1.1-1.8-1.9-3.7-2.3-5.8-2.9 2.7-6.5 4.7-10.2 5.9-0.6 0.2-1.4-0.3-1.3-0.9 0.6-4.8-3.4-8.7-7.8-10-9.1-2.7-19.1 2.7-28-1.8q-0.6-0.3-1.2-0.7c-0.3 2.6-0.8 5.2-1.1 7.8q-0.6 5.6-1 11.3c-0.4 6.7-0.7 13.4-0.5 20 0.1 6.6 0.6 13.3 2.6 19.6 1 3.3 2.4 6.4 4.1 9.4q0.4-0.5 0.8-0.9c0.4-0.4 1-0.3 1.3 0 0.4 0.4 0.3 0.9 0 1.3q-0.5 0.6-1 1.3 1.1 1.7 2.3 3.2c2 2.6 4.3 4.9 6.8 7zm25.3 39.4c-1.6 1.1-3.4 1.9-5.3 2.4-1.6 0.4-3.3 0.6-4.9 0.6 0.9 2.3 2.1 4.8 4.3 6.1 1.3 0.6 2.8 0.7 4.2 0.8q0.1 0 0.3 0 0.7 0.1 1.5 0.1 1.2 0.1 2.3 0.4c0.2-0.8 0.8-1.6 1.1-2.2 0.6-1.1 1-2.2 1.1-3.5 0-1.3-0.2-2.6-0.6-3.8-0.4-1-0.9-2-1.3-3q-0.4 0.4-0.8 0.7-0.9 0.8-1.9 1.4zm-33 27.7c1.5-9.7 4-19.2 8-28.2-0.8-0.3-1.7-0.7-2.5-1.1-1.2 1.4-2.8 2.6-4.1 3.7q-2.5 2.2-5 4.4c-3.3 2.8-6.8 5.4-10.2 8q-1.3 1-2.6 1.9c0.7 1.1 1.2 2.4 1.6 3.6q0.9 2.2 1.4 4.5c0.6 2.7 0.9 5.5 0.8 8.3 3.9-1.4 7.8-3.1 11.6-4.7q0 0 0 0 0.5-0.2 1-0.4zm-13.4 118.4q0.8 1 1.7 1.8c2.9 2.6 6.7 4.2 10.3 5.6-0.8-4.6-0.4-9.5 0.1-14 0.7-5.3 1.9-10.5 3.2-15.7 2.5-9.5 5.5-18.8 6.9-28.6 1.5-10.2 1.6-20.5 1.9-30.8q0.7-31.6 1.4-63.2 0-0.1 0.1-0.2-1.2-0.4-2.4-0.8-0.1-0.1-0.2-0.1c-4.4 11-7.1 22.4-8.6 34.2-2.7 21.6-2.2 43.5-5.7 65-1.8 10.6-4.7 20.9-9.2 30.6-1.1 2.6-2.4 5.4-2.5 8.3-0.1 2.6 0.9 5.1 2.4 7.2q0.3 0.4 0.6 0.7zm50.5 316.3c-3.1 0.3-6.2 0.3-9.3 0.3q-6.3 0.1-12.7-0.5-6.3-0.6-12.6-1.8-1.9-0.4-3.8-0.8c-2 2.3-5 4.2-9 6-3.4 1.5-7 2.6-10.5 3.6-3.6 1.1-7.3 2.1-10.7 3.7-3.3 1.5-6 3.3-8.1 5.4-1.2 1.1-2.1 2.4-2.9 3.6-0.3 0.6-0.6 1.3-0.9 1.9-0.2 0.7-0.5 1.3-0.8 2 3.3 3.6 6.5 6.2 9.8 8.3 2.1 1.2 4.2 2.2 6.2 3.1 1 0.3 1.9 0.6 2.8 0.9 1.3 0.4 2.6 0.8 3.9 1.4q0.1 0.1 0.3 0.2c6-1.2 13-2.6 19.7-4.4 5.2-1.4 10.9-3.1 17.7-5.4q4.4-1.4 8.9-3 0.9-0.3 1.9-0.6c2-0.7 4.1-1.3 6-2.2 2.7-1.2 4.5-2.7 5.6-4.6 1.1-1.9 1.7-4.2 1.6-6.8 0-3.7-1.4-7-3.1-10.3zm59.1-12q-0.1-1.4-0.1-2.8-1-18.4-1.8-36.9c-1.6-42.6-2.6-85.3-2.8-128q-0.1-63.2 2.1-126.4-5.1 1.6-10.3 2.7c-7.2 1.4-14.7 2.2-21.9 1.5q0 0-0.1 0-2.1 2.5-4.2 5 0.2 0.2 0.3 0.4c0.7 1.7 0.2 4.2-0.1 6.1-0.4 1.9-1 3.9-1.9 5.7-1.4 3-3.7 6.1-6.6 8.1q2.6 2.2 5.4 4.2c1.1 0.8 0.1 2.7-1.1 1.9-4.3-2.6-8-6.4-11.1-10.3-3.2-4-6.1-8.3-8.6-12.7q-0.3-0.4-0.6-0.9c-3.6 2.3-7.8 3.9-12.1 4.2-1.4 0.1-3.1-0.1-3.9-1.5-0.9-1.6 0.2-3.3 1.2-4.5 3.2-3.6 6.6-7 9.9-10.5q0.8-0.9 1.7-1.8 0-0.3 0.1-0.6 0.4-0.7 0.8-1.3c-0.7 0-1.5 0-2.2 0q-2.3-0.1-4.6-0.3-4.5-0.6-8.8-2c-5.4-1.9-10.3-4.8-14.5-8.7-0.4 4.5-0.3 8.8 0 13.2 0.9 0.7 0.4 2.3-0.8 1.9-4.1-1.6-8.3-3.2-11.7-6-3.5 19.6-3.3 39.6-1.8 59.3 1.6 20.2 4.5 40.3 6.4 60.4q3.1 31.1 4 62.3 0.9 31-0.2 62.1-1 26.8-3.6 53.6-0.1 1.3-0.2 2.5-0.3 2.8-0.6 5.5c2.1 0.4 4.1 0.9 6.2 1.4q0.6 0.1 1.2 0.2 1.9 0.5 3.8 0.8 6.1 1.1 12.3 1.7 6.1 0.5 12.2 0.4c2.7 0 5.4-0.3 8-0.5q1.5-0.1 2.9-0.1 0.7-0.1 1.4-0.1 0.3-4.6 0.6-9.3 0.1-1.3 0.3-2.6 0-1.2 0.2-2.4 1-10.8 2.6-21.6-0.2-2.1-0.3-4.3c-0.9-18.7-1.4-37.5-2.9-56.2-1.5-18.6-4.3-36.9-8.4-55-4.1-17.9-8.9-35.6-12.2-53.7-3.2-17.4-4.9-35.1-3-52.7-1-0.4-1.9-0.9-2.8-1.4q-1.7-0.9-3.3-1.8-1.7-0.9-3.3-1.8-0.8-0.4-1.6-0.9c-0.6-0.3-1.2-0.6-1.5-1.2-0.4-0.6 0.1-1.3 0.7-1.3 0.7 0 1.3 0.3 1.9 0.6q0.8 0.5 1.6 0.9 1.6 0.9 3.2 1.7 1.6 0.9 3.2 1.8c1.1 0.6 2.2 1.1 3.2 1.9 0.4 0.3 0.6 0.7 0.4 1.2q0 0.2-0.2 0.3-0.3 3-0.4 6c-0.8 18.1 1.6 36.2 5.3 53.9 3.7 17.8 8.6 35.3 12.4 53.1 3.9 18.1 6.1 36.4 7.4 54.8 1 14.4 1.5 28.8 2.3 43.3q0.2 4.9 0.5 9.9 0.1 1.3 0.2 2.6c0.4 7.4 1 14.8 1.7 22.3q0.2 1.3 0.3 2.6c1.1 10.2 2.6 20.3 4.6 30.3 7.3 2.4 14.9 3.6 22.6 3.6 4 0 7.9-0.3 11.8-1 3.8-0.6 7.4-1.7 11.1-2.9q-1.1-14.9-1.9-29.9zm-1.3 33.8c-6.3 1.8-13.1 2.6-19.5 2.6-5.2 0-10.3-0.6-15.3-1.8q0 0.3-0.2 0.5c-2.1 2.5-5.2 4.6-9.6 6.6-1.9 0.9-3.9 1.6-5.9 2.2 3.2 0.8 6.3 2.1 9.2 3.8q2.7 1.6 5.1 3.7c1.5 1.3 3.2 2.8 4 4.8 0.2 0.6-0.6 1.2-1.1 0.8-1.7-1.1-3-2.8-4.5-4.1q-2.2-1.9-4.7-3.5c-3.5-2-7.3-3.5-11.3-4.3q-0.2 0-0.3-0.1-0.5 0.2-1.1 0.3c-3.5 1.1-7.2 2.2-10.7 3.7-3.3 1.5-5.9 3.3-8.1 5.4q-1.7 1.7-2.8 3.6c-0.4 0.6-0.6 1.3-0.9 1.9-0.2 0.7-0.5 1.4-0.9 2 3.4 3.6 6.5 6.2 9.9 8.3 2 1.2 4.1 2.3 6.2 3.1 0.9 0.3 1.9 0.6 2.8 0.9 1.3 0.4 2.6 0.8 3.8 1.4q0.2 0.1 0.3 0.2c6.1-1.2 13-2.6 19.7-4.4 5.3-1.4 10.9-3.1 17.7-5.4q4.5-1.4 8.9-2.9 1-0.4 1.9-0.7c2-0.6 4.1-1.3 6-2.2 2.7-1.2 4.6-2.7 5.7-4.6 1.1-1.9 1.6-4.2 1.6-6.8-0.1-5.5-3.1-10.3-5.9-15zm-49.4-36.5q-0.7-6.6-1.2-13.4-0.8 6.7-1.5 13.4zm128.2-84.7h9.3q-0.1 0-0.1-0.1 0.2-9.4 0.5-18.7 0.8-16.5 2.2-32.9 0.3-3.1 0.6-6.1-0.2-0.1-0.3-0.3-1.4-2.8-2.7-5.6-0.6-1.3-1.1-2.7-0.3-0.7-0.7-1.4c-0.2-0.5-0.4-1-0.4-1.6 0-0.7 0.8-1 1.3-0.5 0.7 0.6 1 1.8 1.4 2.7q0.5 1.4 1.1 2.7 0.9 1.9 1.7 3.8 0.4-3.7 0.8-7.5c0.6-5.3 0.9-10.8 2-16.1 0.2-0.9 1.7-0.7 1.7 0.3-0.3 3.1-0.8 6.2-1.3 9.2q-0.6 4.7-1.1 9.3c-1.5 12.6-2.5 25.1-3.2 37.7 0.8-0.8 1.6-1.6 2.4-2.5q0.7-1 1.5-2 0.3-0.5 0.7-1c0.3-0.3 0.5-0.7 0.9-1 0.4-0.2 1 0.1 1 0.6-0.1 0.9-0.8 1.7-1.3 2.4q-0.8 1.1-1.6 2.1-1.7 1.9-3.7 3.5-0.6 12.8-0.9 25.6 0 0.1 0 0.1h10.5c4-7.2 6.6-15 8.1-23.1 1.4-7.2 2-14.5 2.3-21.8 0.3-8.2 0.2-16.4-0.7-24.5-0.7-7.7-2.2-15.3-4.6-22.7-1.2-3.6-2.5-7.2-4.2-10.6-1.3-2.8-2.8-5.5-4.3-8.2-4.5 6.5-8.4 13.5-11.6 20.8-6.2 14.1-9.9 29.4-10.9 44.7-1 15.4 0.7 30.6 4.7 45.4zm-15.5 0h13.7c-2-6.1-3.3-12.4-4.1-18.8q0 0-0.1 0-6.7-8.9-14.4-16.9l-0.3-0.3c-2.8-0.6-5.7-0.8-8.6-0.7-0.8 0-0.8-1.3 0-1.3 2.3-0.2 4.6 0 6.9 0.3-4.5-4.5-9.3-8.7-14.1-13-0.6-0.4 0.2-1.4 0.8-1 5.9 4.5 11.4 9.7 16.6 15.1 4.5 4.7 8.8 9.6 12.8 14.8q-0.2-1.7-0.3-3.3-0.8-8.7-0.4-17.5c-6.1-6-12.5-11.4-19.9-15.8-7.1-4.1-14.6-7.1-22.4-9.5 0.2 5.4 0.9 10.7 2.1 16 2.3 10.1 6.3 19.8 11.7 28.7 2.7 4.4 5.8 8.7 9.3 12.6 3.3 3.8 7 7.2 10.7 10.6zm73.1 85.2v-4.2q0-19.9 0-39.9v-20c-1.4 0.3-3 0.2-4.5 0.2h-4.8q-5 0-9.9 0h-35.2q-8.7 0-17.5 0-4.3 0-8.7 0c-2.6 0-5.3 0.1-7.9-0.3v3.1 39.9q0 10 0.1 20 0 0.4 0 0.7v0.1q0 1.4 0 2.7v0.2c0 4.9 0.1 9.9 0.1 14.9 6.2-0.7 12.5-0.5 18.7-0.5h35.4c5.9 0 11.8 0.3 17.7 0.2 3 0 6-0.1 9-0.2 2.5 0 5.1-0.1 7.6 0.1-0.1-1.4-0.1-2.8-0.1-4.2q0-2.7 0-5.5v-5.3q0-1 0-2zm-19.7-82.5h-61.2c-2.6 0-5.3 0.2-7.8-0.2 0.2 5.5 0.2 11 0.2 16.5 2.9-0.5 6-0.3 8.9-0.3q5 0 10 0h52.6q4.4 0 8.7 0h4.5c1.3 0 2.6-0.1 3.8 0.2 0-5.6 0-11.1 0.3-16.7q-0.1 0.1-0.1 0.1c-6.6 0.7-13.3 0.4-19.9 0.4zm15.6-13.3c3.4-3.9 6.5-8.2 9.3-12.6 5.4-8.9 9.4-18.6 11.6-28.7 1.2-5.3 1.9-10.6 2.2-16-7.8 2.4-15.4 5.4-22.4 9.5-7.5 4.4-13.9 9.8-20 15.9q-0.2 0.1-0.3 0.2 0 0.2-0.1 0.4c-0.3 6.2-0.9 12.5-2 18.6 3.4-4.5 7.4-8.7 11.5-12.6q2.6-2.5 5.3-4.9-0.1-0.2-0.1-0.5 0.5-2.1 1.1-4.3 0.3-1 0.6-2.1c0.2-0.7 0.3-1.5 0.8-2.1 0.5-0.4 1.1 0 1.2 0.5 0 0.7-0.3 1.5-0.6 2.2q-0.3 1-0.6 2-0.4 1.5-0.8 2.9 4.5-3.9 9.2-7.3c1-0.8 2 0.9 1 1.6-5.7 4.1-11.1 8.4-16.1 13.3-1.9 1.8-3.8 3.8-5.6 5.7q0.8-0.1 1.6-0.1 0.8-0.1 1.6-0.1 0.3 0 0.7 0c0.3 0 0.6-0.1 0.9 0 0.6 0.3 0.5 1 0 1.3-0.3 0.1-0.6 0-0.9 0q-0.4 0.1-0.7 0.1-0.8 0-1.6 0-1.3 0-2.6 0c-2.2 2.4-4.4 4.8-6.5 7.2-1.6 7.2-3.9 14.1-7.4 20.5h16.3q1.3 0 2.6 0c3.8-3.4 7.5-6.8 10.8-10.6z"/>
				<path id="&lt;Path&gt;" class="s3" d="m854.2 829.7q-0.1-1.5-0.1-2.9c-0.1-0.5-0.4-0.9-0.9-0.9-0.5 0-0.8 0.4-0.9 0.9q0 1.4-0.1 2.9 0 0.7 0 1.4 0 0.4 0.1 0.9c0-0.1 0.1 0.2 0.1 0.2 0 0.2 0.1 0.4 0.3 0.6 0.3 0.3 0.7 0.3 1 0 0.2-0.2 0.3-0.4 0.3-0.6 0-0.1 0.1-0.3 0.1-0.2q0.1-0.5 0.1-0.9 0-0.7 0-1.4z"/>
				<path id="&lt;Path&gt;" class="s3" d="m877.2 825.7c-0.5 0-0.9 0.4-0.9 0.9q-0.1 1.4-0.1 2.9-0.1 0.7-0.1 1.4c0 0.7 0 1.2 0.5 1.7 0.2 0.3 0.7 0.3 0.9 0 0.5-0.5 0.5-1 0.5-1.7q0.1-0.7 0.1-1.4 0-1.5 0-2.9c0-0.5-0.4-0.9-0.9-0.9z"/>
				<path id="&lt;Path&gt;" class="s3" d="m899.7 830.4q0-0.2 0-0.3-0.1-0.4-0.1-0.7-0.1-1.4-0.1-2.8c0-0.5-0.4-0.9-0.9-0.9-0.5 0-0.8 0.4-0.8 0.9q-0.2 1.4-0.1 2.8 0.1 0.7 0.2 1.4c0 0.6 0.1 1.2 0.6 1.6 0.3 0.3 0.9 0.3 1.1-0.1 0.2-0.3 0.3-0.6 0.3-0.9-0.1-0.3-0.1-0.6-0.2-0.8 0-0.1 0-0.2 0-0.2z"/>
				<path id="&lt;Path&gt;" class="s3" d="m922.3 832.3c0.1-0.4 0.1-0.8 0.1-1.3q0-0.6 0-1.2-0.1-1.1-0.1-2.3c0-0.5-0.4-0.9-0.8-0.9-0.5 0-0.9 0.4-0.9 0.9q0 1.2-0.1 2.3 0 0.6 0 1.2c0 0.4 0 0.9 0.1 1.3 0.2 0.9 1.5 0.9 1.7 0z"/>
				<path id="&lt;Path&gt;" class="s3" d="m923 851.3q-0.6-0.4-1.3-0.6-0.6-0.2-1.3-0.4-1.4-0.3-2.7-0.7c-0.4-0.1-0.9 0.2-1 0.6-0.1 0.4 0.1 0.9 0.6 1q1.3 0.4 2.6 0.7 0.7 0.2 1.3 0.4 0.8 0.2 1.5 0.2c0.7 0 0.9-0.9 0.3-1.2z"/>
				<path id="&lt;Path&gt;" class="s3" d="m921.1 856.4q-0.4-0.1-0.7-0.2-0.8-0.3-1.5-0.5c-0.4-0.2-0.9 0.1-1 0.5-0.1 0.4 0.2 0.8 0.6 0.9q0.7 0.3 1.4 0.5 0.4 0.2 0.8 0.3 0.2 0 0.4 0.1 0 0 0.1 0c0.2 0.1 0.3 0 0.5 0 0.2 0 0.4-0.3 0.5-0.5 0-0.2 0-0.4-0.2-0.6-0.2-0.3-0.6-0.4-0.9-0.5z"/>
				<path id="&lt;Compound Path&gt;" fill-rule="evenodd" class="s3" d="m978.7 690.3c-2 3.1-6 4.6-9.5 3.8-3.7-0.8-6.3-4.2-6.7-7.8-0.4-3.2 1.3-6.6 4.4-7.9q0-0.2 0.2-0.4 0.1-0.1 0.2-0.2-0.3-2-0.6-3.9c-0.1-0.9 1.2-1.3 1.4-0.4q0.3 1.8 0.6 3.5c1.3-0.5 2.9-0.5 4.3-0.2 1.9 0.4 3.8 1.4 5.1 3 2.3 2.9 2.6 7.3 0.6 10.5zm-2.9-9.9c-1.1-0.9-2.4-1.5-3.8-1.7-1-0.1-2 0-2.9 0.2q0.2 1.2 0.4 2.4c0.1 0.8 0.4 1.8 0.2 2.6-0.1 0.5-0.8 0.5-1.1 0.1-0.4-0.7-0.5-1.7-0.6-2.5q-0.2-0.8-0.3-1.7c-2.8 1.2-3.9 4.7-3 7.5 0.8 2.7 3.3 4.8 6.1 4.9 2.7 0 5.5-1.5 6.6-4 1.1-2.6 0.5-5.9-1.6-7.8z"/>
				<path id="&lt;Path&gt;" class="s3" d="m972.6 680.7c-0.2 0-0.5 0.2-0.6 0.4-0.1 0.8-0.2 1.5-0.3 2.3 0 0.1 0.1 0.3 0.2 0.4 0.1 0.1 0.3 0.2 0.4 0.2q0.3 0 0.4-0.2 0.2-0.2 0.2-0.4c0.1-0.7 0.2-1.4 0.2-2.1 0-0.3-0.2-0.5-0.5-0.6z"/>
				<path id="&lt;Compound Path&gt;" fill-rule="evenodd" class="s3" d="m163.8 508.1c0.4-3.6 3.1-7 6.7-7.8 3.6-0.8 7.5 0.7 9.5 3.8 2.1 3.1 1.8 7.6-0.6 10.5-1.2 1.5-3.1 2.6-5.1 3-1.4 0.3-2.9 0.3-4.3-0.2q-0.3 1.7-0.6 3.5c-0.2 0.9-1.5 0.5-1.4-0.4q0.4-1.9 0.7-3.9-0.1-0.1-0.3-0.2-0.2-0.2-0.2-0.5c-3-1.2-4.8-4.6-4.4-7.8zm5.2 6.5q0.2-0.9 0.3-1.8c0.2-0.7 0.2-1.7 0.7-2.4 0.2-0.4 0.9-0.4 1.1 0.1 0.2 0.8-0.1 1.8-0.3 2.6q-0.2 1.2-0.4 2.4c1 0.2 2 0.3 3 0.2 1.3-0.2 2.7-0.8 3.7-1.7 2.1-1.9 2.7-5.2 1.6-7.8-1.1-2.5-3.8-4-6.5-4-2.9 0.1-5.3 2.2-6.2 4.9-0.9 2.8 0.2 6.3 3 7.5z"/>
				<path id="&lt;Path&gt;" class="s3" d="m174 513.6c0.2 0 0.4-0.2 0.4-0.5 0-0.7-0.1-1.4-0.2-2.1q0-0.2-0.1-0.4-0.2-0.2-0.4-0.2c-0.2 0-0.4 0.1-0.5 0.2-0.1 0.1-0.1 0.3-0.1 0.4 0.1 0.8 0.1 1.5 0.3 2.3 0 0.2 0.3 0.4 0.6 0.3z"/>
				<path id="&lt;Compound Path&gt;" fill-rule="evenodd" class="s3" d="m848.1 468q-0.2 0.1-0.3 0.2 0.3 1.9 0.7 3.9c0.1 0.9-1.2 1.2-1.4 0.3q-0.3-1.7-0.7-3.4c-1.3 0.4-2.9 0.4-4.2 0.2-2-0.4-3.9-1.5-5.1-3-2.4-3-2.7-7.4-0.6-10.5 2-3.1 5.9-4.6 9.5-3.8 3.6 0.8 6.3 4.1 6.7 7.7 0.4 3.3-1.4 6.7-4.4 7.9q0 0.3-0.2 0.5zm2.4-9.4c-0.9-2.7-3.3-4.7-6.2-4.8-2.7-0.1-5.4 1.4-6.5 4-1.1 2.6-0.5 5.9 1.6 7.8 1 0.9 2.4 1.5 3.7 1.6 1 0.2 2 0 3-0.1q-0.2-1.3-0.4-2.5c-0.2-0.8-0.5-1.7-0.3-2.5 0.2-0.5 0.9-0.6 1.1-0.1 0.5 0.6 0.5 1.6 0.7 2.4q0.1 0.9 0.3 1.7c2.8-1.2 3.9-4.7 3-7.5z"/>
				<path id="&lt;Path&gt;" class="s3" d="m842.8 462q-0.2 0-0.4 0.1-0.1 0.2-0.2 0.5c0 0.7-0.1 1.4-0.1 2.1 0 0.3 0.2 0.5 0.4 0.5 0.3 0 0.5-0.1 0.6-0.4 0.2-0.7 0.2-1.5 0.3-2.2 0-0.2-0.1-0.4-0.2-0.5-0.1-0.1-0.2-0.1-0.4-0.1z"/>
				<path id="&lt;Path&gt;" class="s3" d="m728.5 551.4q-2.6-5.3-4.7-10.9c-2.8-7.4-5.1-15.1-6.7-22.9-0.1-0.9-1.6-0.5-1.4 0.4 1.5 8 3.6 15.8 6.5 23.4q2.1 5.6 4.7 11c1.8 3.6 3.5 7.3 6 10.5 0.5 0.8 1.6 0.2 1.2-0.7-1.7-3.7-3.8-7.1-5.6-10.8z"/>
				<path id="&lt;Path&gt;" class="s3" d="m774.3 813.5q-4.8-4.4-9.5-8.9-9.2-9-17.6-18.7c-0.6-0.7-1.6 0.3-1 1 5.5 6.7 11.4 13.1 17.5 19.2q4.6 4.4 9.3 8.7c3.2 2.8 6.5 5.8 10.1 8.2 0.6 0.4 1.3-0.6 0.8-1.1-3.1-2.9-6.4-5.6-9.6-8.4z"/>
				<path id="&lt;Path&gt;" class="s3" d="m687.1 934.2q-1.8-1.5-3.8-2.6c-2.7-1.5-5.6-2.6-8.7-2.9-0.9-0.1-1 1.3-0.2 1.4 2.8 0.7 5.6 1.6 8.1 3.1q1.9 1 3.5 2.4c1.1 0.9 2.1 2.1 3.3 2.9 0.6 0.4 1.2-0.4 0.9-0.9-0.7-1.4-2-2.5-3.1-3.4z"/>
				<path id="&lt;Path&gt;" class="s3" d="m698.4 363.4c-1.6 0-2.9 2.2-2.9 5 0 2.8 1.3 5 2.9 5 1.6 0 2.9-2.2 2.9-5 0-2.8-1.3-5-2.9-5z"/>
				<path id="&lt;Path&gt;" class="s3" d="m722.1 363.6c-1.6 0-2.9 2.3-2.9 5 0 2.8 1.3 5 2.9 5 1.6 0 2.9-2.2 2.9-5 0-2.7-1.3-5-2.9-5z"/>
				<path id="&lt;Path&gt;" class="s3" d="m698.5 352.3c1.8-1.3 3.4-3.1 4.1-5.1 0.3-0.7-0.2-1.6-0.8-1.8-0.7-0.3-1.5 0-1.9 0.6-0.2 0.4-0.5 0.8-0.7 1.2q-0.2 0.3-0.4 0.5-0.1 0.2-0.2 0.3 0 0 0 0 0 0 0 0-0.9 1.1-1.9 2-0.1 0.1-0.3 0.2 0 0 0 0 0 0 0 0-0.3 0.2-0.6 0.4-0.5 0.4-1.1 0.7c-0.8 0.4-1.6 0.9-2.4 1.3-0.9 0.4-0.4 1.7 0.5 1.7q0.3 0 0.7 0 0.3 0 0.6-0.1c0.1 0 0.1 0 0.1 0q0 0 0.1 0 0.8-0.1 1.5-0.4c1-0.4 1.9-0.9 2.7-1.5z"/>
				<path id="&lt;Path&gt;" class="s3" d="m717.7 351.1c2.2 0.1 4.7 1.1 6.3 2.5 0.9 0.7 1.6 1.4 2.1 2.3 0.6 1 0.9 2.4 2 3 0.5 0.2 1 0.1 1.3-0.4 0.9-1.3 0-3-0.7-4.2q-1.2-1.8-2.9-3.1c-1.2-0.9-2.5-1.5-4-1.8-1.4-0.3-2.8-0.2-4.3 0.1-1 0.1-0.7 1.6 0.2 1.6z"/>
				<path id="&lt;Path&gt;" class="s3" d="m706.3 386c-0.8-1.4-1.5-2.7-1.6-4.3-0.1-1.8 0.4-3.6 1.1-5.2 1.4-3.4 3.7-6.5 4.2-10.2 0.2-1.2-1.5-1.7-1.7-0.5-1 4.1-3.7 7.5-5 11.5-1 3.1-1.1 7.7 2 9.7 0.6 0.4 1.4-0.4 1-1z"/>
				<path id="&lt;Path&gt;" class="s3" d="m710.9 398.1c3.5 0.4 7 0.4 10.3 1.4 1.5 0.4 2.9 1 4.1 1.7 0.8 0.5 1.5 1.1 2.3 1.6q-0.6 0.8-1 1.6c-0.2 0.5-0.1 1.1 0.4 1.3 0.4 0.3 1 0.1 1.3-0.3q0.1-0.2 0.2-0.4 0 0 0.1 0 0 0 0 0 0-0.1 0.1-0.2 0.3-0.3 0.6-0.6 0.3-0.3 0.7-0.6 0 0 0.1-0.1 0.1-0.1-0.1 0.1c0.1-0.1 0.1-0.1 0.2-0.1q0.2-0.2 0.4-0.3 0.4-0.3 0.8-0.5 0.1 0 0.2 0c0-0.1 0.1-0.1 0.1-0.1q0.1 0 0.1 0 0.1-0.1 0.2-0.1c0.6-0.2 1.3-0.3 1.9-0.6 0.5-0.2 0.8-0.9 0.6-1.3-0.2-0.6-0.6-0.9-1.2-0.9-0.3-0.1-0.8 0.1-1.2 0.2q-0.5 0.1-0.9 0.3-1 0.4-1.8 1-0.3-0.3-0.6-0.6-1-0.8-2.1-1.4c-1.4-0.8-3-1.4-4.6-1.9-3.6-0.9-7.5-1.1-11.2-0.9-1 0.1-1 1.5 0 1.7z"/>
				<path id="&lt;Path&gt;" class="s3" d="m740.4 371.3q0.2 0.4 0.5 0.9c0.2 0.1 0.3 0.3 0.4 0.5q0.1 0 0.2 0.1c0 0 0 0.1 0 0.1q0.2 0.1 0.4 0.2c0.5 0.3 1.2-0.2 1-0.8q0-0.2-0.1-0.4 0 0-0.1-0.1 0 0 0 0 0-0.1-0.1-0.2 0 0 0-0.1-0.1-0.1-0.2-0.2-0.2-0.4-0.5-0.8-0.2-0.5-0.5-0.9-0.1-0.2-0.2-0.4 0-0.1 0-0.1c0-0.1 0-0.1 0-0.1q-0.1-0.1-0.1-0.2c-0.1-0.2-0.2-0.3-0.4-0.5-0.2-0.1-0.4-0.1-0.6-0.1-0.4 0.2-0.7 0.6-0.6 1.1q0.4 1 0.9 2z"/>
				<path id="&lt;Path&gt;" class="s3" d="m745.2 371.9c0.1 0.3 0.2 0.6 0.4 0.9 0.1 0.3 0.3 0.6 0.5 0.8 0.1 0.2 0.4 0.2 0.6 0.1 0.2-0.1 0.4-0.3 0.4-0.5 0-0.3-0.1-0.6-0.1-0.8q-0.1-0.5-0.3-1-0.2-0.8-0.5-1.6c-0.2-0.4-0.6-0.7-1-0.5-0.4 0.1-0.6 0.5-0.5 0.9q0.2 0.8 0.5 1.7z"/>
				<path id="&lt;Path&gt;" class="s3" d="m741.4 409.2q-0.2 0.1-0.3 0.3c-0.2 0.2-0.3 0.7 0 0.9q0.7 0.6 1.5 1 0.5 0.2 0.9 0.3 0.5 0.1 1 0.1c0.3 0 0.5-0.2 0.6-0.5 0-0.3-0.2-0.6-0.5-0.7q0 0-0.1 0 0-0.1-0.1-0.1 0 0 0 0-0.2-0.1-0.5-0.2-0.1 0-0.2 0 0 0-0.1-0.1-0.1 0 0.1 0.1c-0.1-0.1-0.3-0.2-0.4-0.2q-0.7-0.3-1.3-0.8c-0.1-0.1-0.4-0.1-0.6-0.1z"/>
				<path id="&lt;Path&gt;" class="s3" d="m703.5 407.9q-0.1-0.1-0.2-0.2-0.1 0-0.3 0-0.2-0.1-0.3 0c-0.2 0-0.5 0.2-0.6 0.4q-0.2 0.4-0.3 0.8c-0.1 0.2-0.2 0.4-0.3 0.6 0 0.2-0.1 0.4 0 0.6q0.1 0.4 0.5 0.6 0.4 0.1 0.8-0.1c0.2-0.1 0.3-0.3 0.4-0.4 0.1-0.2 0.2-0.4 0.2-0.6q0.2-0.4 0.4-0.8 0-0.2 0-0.4 0-0.2-0.1-0.3-0.1-0.1-0.2-0.2z"/>
				<path id="&lt;Path&gt;" class="s3" d="m730.1 420.1q0-0.1 0-0.1 0 0-0.1 0-0.1-0.5-0.3-0.9-0.1-0.4-0.2-0.9-0.1-0.2-0.1-0.4 0-0.2 0-0.3 0 0-0.1-0.1 0 0 0 0c0-0.4-0.3-0.8-0.7-0.8-0.4 0.1-0.8 0.4-0.7 0.8q0 1 0.3 2.1 0.2 0.5 0.4 1c0.2 0.3 0.3 0.7 0.6 1 0.2 0.2 0.5 0.2 0.8 0.1 0.2-0.1 0.4-0.3 0.4-0.6q-0.1-0.3-0.2-0.6 0-0.1-0.1-0.3z"/>
				<path id="&lt;Path&gt;" class="s3" d="m723.4 414.6c-0.1 0-0.3 0-0.5 0.1q-0.2 0.2-0.3 0.4-0.1 0.2-0.1 0.4-0.1 0.3-0.1 0.6 0 0.2 0.1 0.4 0 0.2 0.1 0.4 0.1 0.1 0.2 0.3 0 0 0 0 0.2 0.1 0.4 0.2c0.1 0 0.3 0 0.4-0.1q0 0 0.1-0.1 0.1-0.1 0.2-0.2 0-0.1 0-0.3 0 0 0-0.1 0-0.2 0-0.3-0.1-0.2 0-0.5 0-0.1 0-0.3c0.1-0.2 0.1-0.4 0-0.5-0.1-0.2-0.3-0.3-0.5-0.4z"/>
				<path id="&lt;Path&gt;" class="s3" d="m768.3 386.3c0.5 0.2 0.9-0.1 1-0.6q0.7-1.6 1.7-3.1c0.3 0.4 0.8 0.8 1.2 1.1 0.3 0.2 0.7 0.4 1 0.6 0 0 0.1 0.1 0.1 0.1q0.1 0.1 0.2 0.2c0.2 0.2 0.3 0.4 0.7 0.5 0.5 0.1 0.9-0.2 1.1-0.7 0.4-0.9-0.7-1.7-1.3-2.1-0.3-0.1-0.6-0.3-0.9-0.5-0.1 0-0.2-0.1-0.2-0.2-0.1 0-0.2-0.1-0.2-0.1 0.1 0 0 0 0-0.1q0 0 0 0 0-0.1 0-0.1 0-0.2 0.1-0.3c0.2-0.3 0.5-0.6 0.7-0.9 0.6-0.6 1.3-1.2 1.9-1.9 0.3-0.4 0.4-1 0-1.4-0.4-0.4-1-0.3-1.4 0-2.9 2.3-5 5.1-6.3 8.5-0.2 0.4 0.2 0.9 0.6 1z"/>
				<path id="&lt;Path&gt;" class="s3" d="m722.7 312.8c1.6 1.7 3.5 3.1 5.6 4.1 0.4 0.2 0.9 0.1 1.1-0.3 0.2-0.4 0.1-0.9-0.3-1.1-1.9-1-3.7-2.3-5.2-3.9-1.5-1.6-2.6-3.5-3.7-5.3-0.3-0.6-1.2-0.2-1.1 0.4 0.5 2.3 2 4.4 3.6 6.1z"/>
				<path id="&lt;Path&gt;" class="s3" d="m780.9 346.4q0.1 1.1-0.1 2.2c-0.2 0.7-0.6 1.6-0.4 2.4 0.1 0.4 0.6 0.6 1 0.4 0.8-0.5 1-1.6 1.1-2.4q0.2-1.4 0.1-2.7c-0.1-1.8-0.7-3.5-1.7-5-0.6-0.8-2 0-1.4 0.9 0.8 1.2 1.3 2.7 1.4 4.2z"/>
				<path id="&lt;Compound Path&gt;" fill-rule="evenodd" class="s3" d="m281 545.3c-3.3-13.9-4.6-28.2-3.2-42.4 2.7-27.8 14.5-54.3 33.5-74.7 17.6-19 41-32.6 66.4-38.3 25.8-5.8 53.5-3.6 78.1 6.3 23.2 9.3 43.1 25.4 57.6 45.7q0.2 0.3 0.4 0.5 0.8 1.2 1.6 2.4-1.9-0.5-3.8-1.1-7.3-2.2-14.6-4.5 5.4 7.8 10.8 15.7c0.8 1.1 1.7 2.4 1.8 3.8 0.1 1.5-0.8 2.5-1.9 3.4-2.2 1.9-4.6 3.7-6.9 5.6q2.3 0.5 4.5 0.9c0.4 0.1 0.8 0.6 0.8 1-1.6 12.7-4.1 25.3-7.5 37.7 5.7-1.6 11.6-2.2 17.5-1.9 0.3 0.1 0.7 0.2 0.9 0.6 2.4 5.4 3.4 11.3 2.9 17.1q7.2-5.8 14.8-11.1 1.3-0.9 2.7-1.8 0.1 1.3 0.1 2.6 0 0.1 0 0.3c0.8 27.5-7.2 55.3-22.7 78-16.2 23.6-39.6 40.4-61.3 58.4-20.5 16.9-40.9 36.4-50.3 61.8q0.1 0.2 0.1 0.4c2.6 2.5 3.5 6.6 2.5 10.1-0.9 3.2-3.4 6.2-6.6 7.3 1.5 3.3 1.3 7.7 0.1 11q-1 2.8-2.9 5.1c-0.9 1.1-2 2.3-3.2 3.1 0.6 1.4 0.8 3.3 0.9 4.8 0.1 2.2-0.1 4.4-0.8 6.5-0.6 2.1-1.6 4.1-2.8 5.8-0.9 1.2-1.9 2.7-3.2 3.6 1.6 3.2 1.6 7.4 0.6 10.7-0.6 1.8-1.4 3.6-2.6 5.1-0.9 1.2-2.2 2.9-3.7 3.5 1.5 5.9-1.5 12.4-5.7 16.4-5.1 5-11.9 7.4-18.4 10-3.9 1.6-7.7 3.3-11.2 5.7-0.4 0.2-0.7 0.2-1 0.1-0.8 1.3-2.2 2.4-3.4 3.3q-2.4 1.8-5.2 3c-6.5 2.7-14 2.5-20.2-0.9-6-3.3-10.7-9.5-11.7-16.4q0-0.1-0.1-0.2c-1.8-3.8-4.3-7.2-7-10.5-4.3-5.4-9-11-10.9-17.8-1.6-5.6-1-12.7 3.2-17.1-1-1.3-1.3-3.4-1.5-4.9-0.2-1.9-0.1-3.8 0.3-5.7 0.8-3.4 2.9-7 5.9-9-0.7-1.4-0.9-3.2-1-4.7-0.3-2.1-0.1-4.3 0.4-6.4 0.5-2.1 1.4-4.2 2.6-6.1 0.7-1 1.5-2.2 2.5-3.1-0.1-0.4 0.1-0.8 0.5-1-0.6-1.2-0.9-2.6-1.1-3.8q-0.5-3 0-5.9c0.7-3.5 2.6-7.4 5.6-9.6-2.3-2.4-2.9-6.4-2.2-9.5 1-3.9 4.2-7.2 8.2-7.7q0.2-0.1 0.3 0 0.1 0 0.1 0 0.1 0 0.1 0 1.6 0.5 3.3 1.1c1.5-6.4 2.2-12.9 2.3-19.4 0.4-28.9-11.2-55.9-21.7-82.2-5.2-13.3-10.4-26.7-13.6-40.7zm61.4 274.5c-2.7 0-5.4-0.4-8-0.8q-5-0.6-10-1.9c-6-1.5-12-3.5-17.4-6.5 0.9 2.9 2.3 5.7 4.3 8.1 4.1 4.9 10.1 7.8 16.5 7.6 3.2-0.1 6.3-0.9 9.1-2.4 1.4-0.7 2.7-1.5 3.9-2.5 0.6-0.4 1.1-1 1.6-1.6zm59.9-105.8q-0.3-0.6-0.7-1.1-0.9 0.1-1.8-0.1c-1-0.1-2-0.3-2.9-0.4q-2.6-0.4-5.3-0.8-5.1-0.9-10.1-1.8-18.5-3.5-36.5-8.8-8.9-2.6-17.8-5.6c-5.8-2-11.7-4.1-17.2-6.8-2.6 1.2-4.7 3.5-5.4 6.3-0.3 1.5-0.2 3.1 0.3 4.6 0.4 1.4 1.4 2.7 2.3 3.9q0.1 0.3 0.1 0.5c5.5 3 11 6 16.6 8.6 11.1 5.1 22.8 8.9 34.6 11.4 12 2.5 24.1 3.4 36.3 3.9 0.9 0.1 0.9 1.5 0 1.5-3.5 0.3-7 0.4-10.6 0.3q-5.3-0.2-10.5-0.8c-12.2-1.4-24.2-4.1-35.7-8.1-5.8-2.1-11.5-4.5-17-7.2-5.1-2.5-10.1-5.2-14.8-8.4q-0.2 0-0.4 0c-1.1 1.2-2.1 2.3-2.9 3.8q-1.3 2.3-1.8 4.9c-0.2 1.6-0.2 3.4 0.1 5 0.3 1.8 1.2 3.3 1.5 5q0 0.4-0.1 0.7 4.7 2.9 9.7 5.4c7.2 3.6 14.9 6.5 22.7 8.6q5.8 1.5 11.7 2.5c4 0.6 8.1 0.8 12 1.5 1 0.2 0.7 1.6-0.2 1.6-4.5 0.4-9.3-0.5-13.7-1.2-15.6-2.7-30.7-8.6-43.8-17.5q-0.3 0.4-0.7 0.8-1 1.1-1.7 2.4-1.5 2.5-2.1 5.2c-0.4 1.9-0.5 3.8-0.4 5.6q0.2 1.5 0.6 3c0.3 0.9 0.7 1.8 0.7 2.8 0.1 0.8-0.9 1.2-1.5 0.9-1 1-2 1.9-2.8 3.1q-1.4 2.1-1.9 4.6c-0.4 1.6-0.5 3.3-0.3 4.9q0.2 1.3 0.6 2.5c0.2 0.6 0.5 1.2 0.6 1.9q0.1 0.1 0.2 0.2c5.2 2.4 10.4 4.8 15.7 6.9 9.8 3.9 19.9 7.1 30.2 9.7q7.6 1.9 15.5 3.3 3.9 0.6 7.8 1.2c2.6 0.4 5.2 0.6 7.8 1.1 0.9 0.2 0.7 1.7-0.2 1.7-3 0-6-0.5-8.9-0.9q-4.5-0.6-9-1.5c-20.5-3.7-40.9-10.2-59.4-19.8-2.6 2.9-3.8 6.5-3.7 10.4 0.1 4.2 1.8 8.2 4 11.7 4.4 7.3 11 13.2 14.7 20.9q0.1 0.2 0.1 0.3c5.9 2.4 11.8 4.7 17.9 6.3q4.9 1.2 9.8 1.9c3.4 0.4 6.7 0.4 10.1 0.8 0.4 0.1 0.7 0.3 0.9 0.5 7-4.6 15.3-6.4 22.6-10.4 3.7-2 7.1-4.6 9.3-8.2 2.2-3.5 2.9-7.5 1.9-11.5-0.2-0.7 0.3-1.1 0.8-1.2 0.4-0.5 1-0.8 1.5-1.3q0.9-0.8 1.7-1.9c1-1.3 1.7-2.8 2.2-4.4q0.7-2.4 0.6-4.9c-0.1-1.4-0.4-2.7-0.8-4.1-0.8 0-1.4-0.9-0.9-1.5 0.5-0.9 1.3-1.4 2-2.1q1.1-1 1.9-2.3c1.1-1.5 2-3.2 2.5-5q0.9-2.7 0.8-5.5 0-1.6-0.3-3.1c-0.1-0.5-0.2-1-0.3-1.5-0.8-0.1-1.1-1-0.5-1.7 1-1.3 2.6-2.2 3.7-3.6 1.1-1.2 2-2.7 2.6-4.3q0.9-2.5 0.9-5.1c0-1.7-0.3-3.2-0.6-4.8-1-0.2-1.4-1.7-0.4-2.1 1.4-0.6 2.8-1.3 4-2.3 1.1-1.1 2-2.4 2.5-3.9 0.7-2.4 0.2-5-1-7.1zm-122.2-186.5c2.8 28.3 15.6 54.3 25.5 80.6 9.5 25.2 16.9 53.2 10.1 80.1 5 1.7 9.9 3.6 14.8 5.3q3.6 1.2 7.1 2.3c2.5-2.5 4.9-5.2 6.9-8 8.7-11.9 13.6-26 17.2-40.1 3.7-14.1 6-29 3.4-43.5-3.6-0.3-7.2-1.1-10.6-2.2-3.2-1.1-6.4-2.4-9-4.4-2.5-2-4.3-4.6-4.4-7.8-0.1-2 0.5-4 1.3-5.8 0.6-1.7 1.3-3.4 2.3-4.9 1.7-2.7 4.6-4.6 7.8-3.4 3.5 1.4 5.7 5.1 7.5 8.1 3.4 5.6 5.7 11.9 7 18.3 2.1 0.1 4.2 0 6.3-0.4q2-0.4 3.9-1.2c-1-2.9-1.5-6-1.4-9 0-3.7 0.6-7.8 3.1-10.7 2.2-2.4 6.1-3.5 9-1.6 2.7 1.9 3.3 5.6 2.8 8.7-0.5 3.5-2.2 6.6-4.5 9.2-1.8 1.9-3.8 3.4-6.1 4.5q0.5 1.2 1.2 2.3c2.4 4.4 6.2 7.9 10.7 10 2.1-5.9 5-11.5 9.3-16.4 4.4-5.2 12.9-11.8 19.7-6.5 5.6 4.3 3.4 12.7 0 17.5-3.9 5.6-10.2 9.3-17 10-3.6 0.4-7.1-0.1-10.5-1.2-2.2 7.1-3.5 14.6-4.9 21.9-1.6 8.2-3.7 16.2-5.8 24.2-3.6 14-6.5 29.1-2 43.3q1.7 0.3 3.3 0.7 4.6 0.8 9.2 1.5 2.4 0.4 4.9 0.8c0.8 0.1 1.7 0.2 2.5 0.3q2.7-7 6.3-13.5c13.7-24.4 36.1-42.2 57.6-59.5 10.9-8.8 21.8-17.7 31.7-27.8 9.7-9.9 18.1-20.9 24.3-33.3 9.6-18.8 14.5-40.1 14.2-61.3q-8 5.6-15.5 11.7c-0.9 0.7-2 0.1-1.8-1 1-6 0.2-12.2-2.1-17.8-6.1-0.3-12.2 0.5-18 2.3-0.8 0.2-1.5-0.5-1.3-1.3 3.6-12.4 6.2-25.2 7.8-38.1q-2.9-0.6-5.7-1.2c-0.7-0.1-1.1-1.2-0.5-1.7q3.9-3.1 7.8-6.3c0.5-0.4 1.4-0.9 1.8-1.6 0.4-0.7 0-1.4-0.3-2.1-0.7-1.2-1.6-2.4-2.4-3.6q-5.6-8-11.1-16.1c-0.5-0.7 0.3-1.8 1.2-1.5q7.6 2.4 15.1 4.9-4-5.5-8.6-10.6c-17.2-18.8-39.6-32.1-64.4-38-25.6-6-53.1-4.3-77.6 5.4-23.8 9.5-44.8 26.5-59 47.9-15.8 23.8-23 53.1-20.1 81.6zm98.2 67.2q0.3 2.5 1 4.8c3.9-2 7.1-5.2 8.5-9.3 0.9-2.6 1.5-6.6-0.8-8.7-2.8-2.7-6.7 0.4-7.8 3.2-1.3 3.1-1.4 6.8-0.9 10zm-16.4 60.5c-4.5 15-10.9 30.1-22.3 41.2q13 4 26.3 7.1 6 1.5 12.1 2.7-1.3-4.5-1.8-9.2c-1.7-17.7 4.8-34.6 8.5-51.5 2.2-9.5 3.5-19.7 6.5-29.2-3-1.3-5.7-3.2-7.9-5.5-2.3-2.4-4.1-5.2-5.3-8.2-3.3 1.3-7 1.9-10.6 1.8q0 0.2 0.1 0.5c2.7 16.9-0.8 34.1-5.6 50.3zm35.2-39.6c6.3 1.3 12.9-0.3 17.9-4.4 4.2-3.5 8.3-9.7 6.4-15.4-1.1-3.3-4.6-4.6-7.9-4-3.4 0.8-6.3 3.2-8.8 5.6-4.8 4.9-8.1 11-10.4 17.4q1.4 0.5 2.8 0.8zm-39.7-31.9c-1.6-2.4-4.3-6.9-7.8-6.1-2.9 0.7-4.2 4.7-5.2 7.1-1.3 3.3-1.7 6.7 0.7 9.5 1.9 2.2 4.6 3.6 7.2 4.7 3.9 1.5 8.1 2.6 12.4 3.1-1.4-6.5-3.8-12.7-7.3-18.3z"/>
				<path id="&lt;Path&gt;" class="s3" d="m381.9 768.5c-5.1-0.1-10.1 0.1-15.2-0.2q-7.7-0.5-15.2-1.9c-10.1-1.9-20-4.9-29.4-8.9q-7.9-3.5-15.5-7.7c-0.8-0.5-1.5 0.7-0.7 1.2 17.3 11.2 37.8 17.5 58.3 19.3 5.8 0.5 11.9 0.9 17.7 0.2 1.2-0.1 1.3-2 0-2z"/>
				<path id="&lt;Path&gt;" class="s3" d="m315.5 467.1c3.8-8 8-15.7 13.2-22.8 5.2-7.2 11.2-13.8 17.9-19.7 13.1-11.4 28.8-19.8 45.6-24.5 9.4-2.6 19-3.9 28.7-4.3 1.3-0.1 1.3-2 0-2-17.6-0.1-35.3 4.5-50.9 12.3-16.1 8-30.2 19.7-41.2 33.9-6.2 8.1-11.4 16.8-15 26.3-0.4 1 1.2 1.7 1.7 0.8z"/>
				<path id="&lt;Path&gt;" class="s3" d="m312.5 488c0.2-0.5 0.4-0.9 0.5-1.5 0-0.4 0.2-0.8 0.3-1.2q0.2-1.5 0.4-2.9c0.3-1.9 0.7-3.9 0.6-5.9 0-1.2-1.8-1.4-2.1-0.3-0.6 1.9-0.7 3.9-0.9 5.7q-0.2 1.5-0.4 3c-0.1 0.9-0.1 2 0 2.9 0.1 0.7 1.3 0.9 1.6 0.2z"/>
				<path id="&lt;Path&gt;" class="s3" d="m384.3 738q0 0.1 0 0 0-0.1-0.1-0.2-0.2-0.6-0.4-1.2-0.2-0.6-0.3-1.2 0-0.1 0-0.3 0 0-0.1-0.1 0 0 0 0 0 0 0-0.1 0-0.3 0-0.6c-0.1-0.4-0.4-0.8-0.8-0.8-0.4 0-0.8 0.4-0.7 0.8q0 1.4 0.3 2.7 0.2 0.7 0.4 1.3 0.1 0.4 0.3 0.7 0.2 0.3 0.4 0.4c-0.1-0.1 0.1 0.1 0.1 0.1q0.1 0.1 0.3 0.1c0.2 0.1 0.5 0 0.7-0.3 0.1-0.2 0.1-0.6 0.1-0.9q-0.1-0.2-0.2-0.4z"/>
				<path id="&lt;Path&gt;" class="s3" d="m389 736q-0.3-1-0.6-2.1c-0.1-0.4-0.6-0.7-1-0.6-0.4 0.2-0.7 0.6-0.6 1l0.6 2.2q0.1 0.5 0.3 1c0.1 0.4 0.2 0.9 0.4 1.2 0.2 0.2 0.5 0.4 0.8 0.3 0.3-0.1 0.5-0.3 0.5-0.7 0-0.4-0.1-0.8-0.2-1.2q-0.1-0.5-0.2-1.1z"/>
				<path id="&lt;Path&gt;" class="s3" d="m302.7 789.8q-0.9-1.6-1.4-3.3c-0.7-2.4-0.9-4.8-1-7.3 0-0.9-1.6-1.2-1.7-0.2-0.4 2.6 0 5.4 0.7 7.9q0.6 1.9 1.5 3.6c0.5 1.2 1.3 2.5 2.3 3.3 0.3 0.2 0.6 0.3 1 0.1 0.2-0.1 0.5-0.5 0.3-0.9-0.4-1.1-1.1-2.1-1.7-3.2z"/>
				<path id="&lt;Path&gt;" class="s3" d="m307.6 788.2q-0.1-0.6-0.2-1.2c-0.1-0.3-0.4-0.5-0.7-0.4-0.3 0.1-0.4 0.4-0.4 0.7q0.2 0.6 0.3 1.2 0.2 0.5 0.4 1.1c0.1 0.3 0.3 0.4 0.6 0.4 0.2-0.1 0.3-0.4 0.3-0.6q-0.1-0.6-0.3-1.2z"/>
				<path id="&lt;Path&gt;" class="s3" d="m368.5 797.2c-0.2-0.1-0.6-0.1-0.8 0.1-0.6 0.8-1 1.6-1.6 2.4q-0.9 1.1-1.9 2c-1.5 1.2-3.1 2-5 2.4-0.9 0.2-0.5 1.5 0.4 1.4 2.1-0.4 4-1.3 5.6-2.5q1.3-1 2.2-2.2c0.7-0.8 1.3-1.8 1.5-2.8 0-0.3-0.1-0.6-0.4-0.8z"/>
				<path id="&lt;Path&gt;" class="s3" d="m313.6 694.3c-0.8 1.3-1.5 2.7-1.9 4.2q-0.3 1.1-0.4 2.3c-0.1 0.8-0.1 1.6 0.2 2.4 0.4 0.6 1.2 0.3 1.4-0.2 0.2-0.7 0.2-1.5 0.2-2.2q0.1-1 0.3-1.9c0.4-1.4 0.8-2.6 1.6-3.8 0.5-0.9-0.8-1.6-1.4-0.8z"/>
				<path id="&lt;Path&gt;" class="s3" d="m318.2 703.4q0 0 0 0-0.1 0.1 0 0z"/>
				<path id="&lt;Path&gt;" class="s3" d="m318.5 699c-0.3-0.2-0.9-0.1-1.1 0.3q-0.4 1-0.6 2c-0.1 0.4-0.1 0.8 0 1.2 0 0.4 0 0.8 0.1 1.1 0.2 0.3 0.4 0.5 0.7 0.4 0.3 0 0.5-0.3 0.6-0.6 0 0 0-0.2 0-0.2q0-0.1 0-0.2 0-0.3 0-0.5 0-0.1 0-0.1 0 0 0 0 0-0.1 0.1-0.3 0-0.1 0-0.3 0 0 0-0.1 0 0 0 0 0.1-0.5 0.2-0.9 0.1-0.2 0.1-0.5 0.1-0.1 0.1-0.1 0-0.1 0-0.1 0 0 0.1-0.1c0.1-0.3 0.1-0.8-0.3-1z"/>
				<path id="&lt;Path&gt;" class="s3" d="m511.9 563.7q1.6 0.5 3.2 0.7c1.1 0.2 2.3 0.3 3.3 0 0.6-0.1 0.6-1 0-1.1-1-0.3-2.1-0.3-3.1-0.5q-1.5-0.2-3-0.6-3.1-0.9-5.7-2.7c-0.8-0.5-1.5 0.7-0.7 1.3 1.8 1.3 3.8 2.3 6 2.9z"/>
				<path id="&lt;Path&gt;" class="s3" d="m511.2 569.8c-0.6-0.4-1.4-0.7-2.1-0.9q-1-0.4-2-0.8c-0.4-0.2-0.8 0.1-0.9 0.5-0.1 0.4 0.2 0.6 0.5 0.8l2 0.8c0.7 0.3 1.3 0.6 2 0.7 0.3 0 0.6-0.1 0.7-0.4 0.1-0.2 0-0.5-0.2-0.7z"/>
				<path id="&lt;Path&gt;" class="s3" d="m323.1 619.5c-1.4-4.1-3.1-8-5.3-11.8-0.6-1.1-2.3-0.1-1.7 1.1 3 6.7 5.5 13.7 7 21 1.5 7.2 2.1 14.6 1.7 21.9-0.2 4.2-0.8 8.3-1.2 12.5 0 0.8 1.2 0.9 1.4 0.2 2.4-7.2 2.7-15.2 2.3-22.6-0.4-7.6-1.8-15.1-4.2-22.3z"/>
				<path id="&lt;Path&gt;" class="s3" d="m323.7 669.9c-0.5 0-1 0.2-1.1 0.7q-0.2 1.6-0.5 3.3-0.1 0.8-0.2 1.6c-0.1 0.4-0.1 0.7-0.1 1q0 0.2 0 0.4 0.1 0.2 0.1 0.1c0 0.2 0.1 0.3 0.2 0.5 0.2 0.2 0.7 0.3 0.9 0.1 0.6-0.4 0.7-1 0.8-1.7q0.1-0.8 0.2-1.6 0.3-1.7 0.5-3.5c0-0.4-0.4-0.8-0.8-0.9z"/>
				<path id="&lt;Compound Path&gt;" fill-rule="evenodd" class="s3" d="m403.6 863.9c0 10.8-24.2 19.2-55 19.2-30.8 0-54.9-8.4-54.9-19.2 0-10.8 24.1-19.2 54.9-19.2 30.8 0 55 8.4 55 19.2zm-30.6 14.9c-4.9-1.8-9.8-3.5-14.8-5-10.3-3.1-20.9-5.4-31.6-6.8q-7.9-1.1-16-1.5c-4.8-0.2-9.5-0.3-14.3-0.4 1.9 7.8 22.5 15.6 52.3 15.6 9.1 0 17.3-0.7 24.4-1.9zm20.3-6.3c-5.2-3.2-10.3-6.5-15.9-9.3-20.7-10-43.8-13.4-66.6-10.7q-0.2 0-0.3 0c-8.7 3-13.9 7-14.3 10.9 5.6-0.4 11.3-0.2 17 0.2 10.8 0.7 21.5 2.2 32 4.6 10.6 2.4 21 5.5 30.9 9.8q0.1 0 0.2 0.1c7.1-1.4 12.8-3.4 17-5.6zm7.9-8.6c0-8.1-21.1-16.8-52.6-16.8-10.8 0-20.4 1-28.3 2.7q4.8-0.3 9.7-0.2c11.6 0.3 23.2 2.5 34.2 6.2 5.5 1.8 10.9 4.1 16.1 6.7 5.1 2.6 10.3 5.4 14.7 9.1 4-2.4 6.2-5.1 6.2-7.7z"/>
				<path id="&lt;Path&gt;" class="s3" d="m392.6 886.5c-3.8 0.7-7.6 1.6-11.5 2.3q-5.7 1.1-11.5 1.8-11.5 1.5-23.1 1.6-11.5 0-22.9-1.3c-7.6-0.9-15.2-2.3-22.4-5-7.1-2.6-13.8-6.5-19.1-12.1-0.5-0.6-1.5 0.3-0.9 1 9.9 11.1 24.5 15.6 38.8 17.6 15.5 2.1 31.4 2.3 47 0.5q6.5-0.7 13-1.9c4.3-0.8 8.8-1.7 13-3.1 0.9-0.3 0.5-1.5-0.4-1.4z"/>
				<path id="&lt;Path&gt;" class="s3" d="m420.9 874c-1 0.6-1.9 1.6-2.9 2.4q-1.5 1.2-3.1 2.2c-2.2 1.2-4.5 2.2-7 2.9-0.9 0.2-0.5 1.6 0.4 1.4 2.7-0.5 5.2-1.4 7.5-2.8q1.7-1 3.3-2.2c1-0.8 2.1-1.8 2.7-3 0.2-0.5-0.3-1.2-0.9-0.9z"/>
				<path id="&lt;Compound Path&gt;" fill-rule="evenodd" class="s3" d="m179.6 852.3c4.8 0 9.7-0.1 14.4 0.4 1.1 0.1 1.1 1.6 0 1.7q-0.3 0.1-0.6 0.1c0.5 1.6 0.3 3.5 0.3 5.1q0 2.7 0 5.4 0 2.7 0 5.5c0 1.6 0.3 3.6-0.3 5.1q-0.2 0.4-0.5 0.5-0.1 0.1-0.3 0.2c-2.1 0.6-4.6 0.2-6.7 0.2q-3.4 0-6.7 0-3.4 0-6.7 0c-2.3 0-4.5 0.1-6.7-0.3-0.7-0.2-0.7-1.2-0.1-1.5-0.2-0.6-0.2-1.2-0.2-1.9q0-1.3 0-2.7 0-2.7 0.1-5.4 0-5.3 0.2-10.6c-0.4-0.3-0.4-0.9 0.1-1.2 1-0.6 2.2-0.5 3.3-0.5q1.7 0 3.5 0 3.5-0.1 6.9-0.1zm0 2.5q-3.4 0-6.9 0-1.9 0-3.7-0.1-0.7 0-1.4 0 0.2 5 0.3 10 0 2.8 0 5.6 0 1.3 0 2.5c0 0.6 0 1.1-0.1 1.6 1.6-0.1 3.1-0.1 4.7-0.1q3.3 0 6.7 0 3.3 0 6.7 0c1.8 0 3.8-0.2 5.6 0-0.1-1.3 0.1-2.8 0-4q0-2.7 0-5.3 0-2.8 0-5.6c0-1.5-0.1-3.2 0.2-4.8-4 0.3-8 0.2-12.1 0.2z"/>
				<path id="&lt;Path&gt;" class="s3" d="m433.8 802.4c4.4-2.3 10.3-5.2 11.2-10.6 0.1-0.8-1.1-1.5-1.5-0.6-1.2 2.6-3 4.7-5.3 6.3-2.6 1.8-5.4 3-8 4.6-4.6 2.7-9.1 7.6-7.4 13.4 0.3 1 1.8 0.6 1.5-0.4-1.5-6.2 4.9-10.3 9.5-12.7z"/>
				<path id="&lt;Path&gt;" class="s3" d="m444.7 772.8c-2-1.4-4.9-0.9-7 0.1-2.5 1.1-4.5 3.2-5.9 5.5-3 4.8-4.1 11-8.8 14.6-0.6 0.6 0.3 1.7 1 1.2 4.2-3.2 5.8-8.2 8.1-12.8 1.2-2.3 2.7-4.7 5-6.2 2.2-1.4 4.5-1.6 7.1-1.1 0.8 0.2 1.2-0.8 0.5-1.3z"/>
				<path id="&lt;Path&gt;" class="s3" d="m263.9 814.3c-1-3.2-2.5-6.4-5.2-8.6-2.4-2.1-5.4-3.2-8.6-3.3-1 0-0.9 1.4 0 1.5 3.7 0.2 7.3 2.1 9.5 5.1 2.4 3.2 3 7.3 4.5 10.9 1.2 3 3 6 6.1 7.3 2.7 1.1 6 0.9 8-1.3 0.7-0.7-0.4-1.8-1.1-1.1-2.3 2.4-6.2 1.6-8.4-0.5-2.7-2.7-3.6-6.5-4.8-10z"/>
				<path id="&lt;Path&gt;" class="s3" d="m249.2 785.8c1.3 3.2 3.7 5.6 6.5 7.7 3.1 2.3 6.7 4.2 9.3 7.1 2.6 2.9 4.2 6.9 2.8 10.6-0.2 0.6 0.7 1 0.9 0.4 1.6-2.9 1.1-6.2-0.5-9.1-1.8-3.2-4.6-5.4-7.6-7.5-3.1-2.2-6.7-4.3-8.8-7.6-1.9-3-2.5-6.6-0.8-9.9 0.4-0.6-0.5-1.3-0.9-0.7-2.2 2.5-2.1 6-0.9 9z"/>
				<path id="&lt;Compound Path&gt;" fill-rule="evenodd" class="s3" d="m178.7 857.3c0.7-0.6 1.8-0.4 2.7-0.2 0.8 0.1 1.7 0.4 2.5 0.9 1.6 0.9 2.8 2.3 3.5 3.9 1.2 2.9 0.8 6.6-1.9 8.5-2.6 1.8-6.9 1.7-9.6 0-2.5-1.6-3.8-4.7-3.2-7.7 0.6-2.8 3-5 5.9-5.4q0 0 0.1 0zm0.2 1.3c-2.4 0.5-4.5 2.8-4.6 5.2-0.1 2.3 1.2 4.5 3.3 5.4 2.1 0.9 5.6 0.9 7.3-0.9 1.7-1.7 1.5-4.6 0.3-6.5-0.7-1-1.6-1.8-2.7-2.3-0.6-0.3-1.3-0.5-2-0.6-0.6-0.1-1.1 0-1.6-0.3z"/>
				<path id="&lt;Path&gt;" class="s3" d="m176.5 865.5q0.2 0.1 0.3 0.2 0.3 0.1 0.6 0.1 0.3 0 0.5-0.1 0.2 0 0.4-0.2 0.2-0.2 0.2-0.4 0.2-0.2 0.2-0.5-0.1-0.2-0.1-0.3-0.1-0.3-0.3-0.6-0.1-0.1-0.3-0.2-0.2-0.1-0.6-0.1-0.2 0-0.5 0.1-0.2 0.1-0.4 0.2-0.1 0.2-0.2 0.4-0.1 0.2-0.1 0.5 0 0.2 0 0.3 0.1 0.3 0.3 0.6z"/>
				<path id="&lt;Path&gt;" class="s3" d="m182.1 865.4q0.2 0.1 0.3 0.2 0.3 0.2 0.6 0.2 0.3 0 0.5-0.2 0.3 0 0.4-0.2 0.2-0.2 0.3-0.4 0.1-0.3 0.1-0.5 0-0.2 0-0.4-0.1-0.3-0.4-0.5-0.1-0.1-0.2-0.2-0.3-0.2-0.7-0.2-0.2 0-0.5 0.1-0.2 0.1-0.4 0.3-0.1 0.2-0.2 0.4-0.1 0.2-0.1 0.5 0 0.2 0 0.3 0.1 0.3 0.3 0.6z"/>
				<path id="&lt;Path&gt;" class="s3" d="m595.1 323.4c-2.3-3.6-4.1-7.5-5.4-11.6-0.4-1.2-2.2-0.7-1.9 0.5 4.1 16.2 17.8 28.8 33.9 32.5 4.6 1.1 9.9 1.7 14.5 0.6 1-0.2 0.7-1.6-0.2-1.6-2-0.2-4.1-0.1-6.2-0.2q-3-0.2-6-0.8c-4-0.8-7.9-2.1-11.6-4-6.9-3.5-12.8-8.8-17.1-15.4z"/>
				<path id="&lt;Path&gt;" class="s3" d="m536.6 238c5.6-3.1 12.6-4.9 18.9-4.9 2.9 0 6.4 0.1 9 1.4 2.2 1.1 1.5 1.5-0.8 3.2-5.8 4.1-12.7 5.7-16.2 12.5-3.5 6.6-2 14.3 4 18.7 6.7 5 13.2-4.3 10.4-10.3-0.7-1.5-0.8-0.4-0.2-1.7 0.7-1.3 2.6-2.2 3.7-2.9 3.8-2.3 7.9-4.3 11-7.7 5.9-6.6 6.1-16.5-0.9-22.4-13.1-11-34.5-5.3-44.5 6.8-3.3 3.9 0.7 10 5.6 7.3z"/>
				<path id="&lt;Path&gt;" class="s3" d="m565.5 277.1q-1.3-1.3-3.1-1.8 0 0 0 0l-1.8-0.2q-1.4-0.1-2.7 0.6-0.8 0.2-1.5 0.9-1.1 0.7-1.7 1.9-0.1 0-0.1 0-0.9 1.6-0.9 3.5 0 1.4 0.6 2.6 0.4 1.3 1.4 2.3 1.3 1.2 3.1 1.7c1.6 0.4 1.5 0.3 2.7 0.2 1.4-0.2 0.9-0.1 2.6-0.9q0.7-0.5 1.4-1 0.8-0.8 1.2-1.8 0.2-0.4 0.3-0.7 0.3-0.5 0.3-1 0.2-0.7 0.2-1.4 0-1.4-0.6-2.7-0.4-1.2-1.4-2.2z"/>
				<path id="&lt;Path&gt;" class="s3" d="m834.8 242.5l12.7-3.6 3.5 12.4c0.1 0.3 0.3 0.5 0.6 0.7q0.2 0.1 0.6 0.1 0.1 0 0.3 0l14.9-4.2c0.6-0.2 1-0.9 0.8-1.5-0.1-0.6-0.8-1-1.4-0.8l-13.8 3.9-3.5-12.4c-0.1-0.3-0.3-0.6-0.6-0.7-0.2-0.2-0.6-0.2-0.9-0.1l-13.8 3.9c-0.6 0.2-1 0.8-0.8 1.5 0.1 0.6 0.8 1 1.4 0.8z"/>
				<path id="&lt;Path&gt;" class="s3" d="m640.3 668.5c-0.1-0.7-0.8-1.1-1.4-1l-13.1 2.3c-0.6 0.1-1 0.7-0.9 1.3l1.3 13.1-12.8 1.3c-0.6 0.1-1.1 0.7-1 1.4l1.6 15.4c0 0.6 0.5 1.1 1.1 1.1q0.1 0 0.2 0c0.6-0.1 1.1-0.7 1-1.4l-1.4-14.2 12.7-1.3c0.7-0.1 1.2-0.7 1.1-1.3l-1.3-13.2 11.9-2.1c0.7-0.2 1.1-0.8 1-1.4z"/>
			</g>
			<path id="&lt;Path&gt;" class="s0" d="m401.7 201.4c0 5.5 4.5 10.1 10.1 10.1 5.5 0 10-4.6 10-10.1 0-5.6-4.5-10.1-10-10.1-5.6 0-10.1 4.5-10.1 10.1z"/>
		</g>
		<g id="Social Media 15 ">
			<g id="&lt;Group&gt;">
				<g id="&lt;Group&gt;">
					<path id="&lt;Path&gt;" class="s4" d="m-197.1 947.4c-0.6 1-1.4 1.8-2.2 2.6-0.2 0.2-0.4 0.3-0.5 0.4-0.5 0.3-0.6 0.7-0.6 1.2 0 4.7-1.5 9-4.5 12.7q-2.6 3.4-6.4 5.2-3.1 1.5-6.5 1.8c-0.8 0.1-1.6 0.2-2.3 0.2-1.8-0.1-3.6-0.3-5.3-0.7q-2.7-0.8-5.2-2.3 0-0.1-0.1-0.1c3.8 0.3 7.1-0.6 10.2-2.9-1.8-0.1-3.3-0.7-4.6-1.9q-1.3-1.2-1.8-2.9c1 0.1 1.9 0.1 3-0.1-2.1-0.6-3.7-1.8-4.7-3.6-0.5-1-0.8-2.1-0.8-3.3 1 0.5 2 0.8 3.1 0.8-1.5-1.1-2.5-2.4-2.9-4.2q-0.5-2.6 0.8-5c3.8 4.4 8.5 6.8 14.3 7.2-0.3-1.3-0.3-2.6 0.2-3.8 1-2.6 2.9-4.2 5.7-4.6 2.2-0.3 4.1 0.4 5.7 1.9 0.1 0.1 0.3 0.2 0.5 0.2q1.8-0.4 3.5-1.3c0.2-0.1 0.3-0.2 0.6-0.3-0.3 0.8-0.6 1.5-1.2 2.1-0.5 0.6-1.1 1.1-1.7 1.7q1.2-0.3 2.4-0.6c0.5-0.1 0.9-0.3 1.3-0.4z"/>
				</g>
				<g id="&lt;Group&gt;">
					<path id="&lt;Path&gt;" class="s4" d="m-433.4 957.9c0 3.8 0 7.5 0 11.2q0 2.3 0 4.6c0.1 0.7-0.2 0.9-0.8 0.9q-2.7 0-5.4 0c-0.7 0-1-0.2-1-0.9q0.1-7.5 0-14.9c0-1 0-1-0.9-1q-0.9 0.1-1.9 0c-0.4 0-0.6-0.2-0.6-0.6q0.1-2.3 0-4.7c0-0.4 0.2-0.6 0.7-0.6q0.9 0 1.8 0c1 0 1 0 1-1 0-1.4 0-2.9 0.1-4.3 0.3-3.2 2.8-5.4 6-5.5 1.8-0.1 3.6-0.1 5.3-0.2 0.7 0 0.9 0.2 0.9 0.9q0 2.1 0 4.3c0 0.6-0.2 0.7-0.8 0.7-0.9 0-1.8 0-2.8 0.1-1 0.1-1.5 0.6-1.6 1.7 0 0.8 0 1.7-0.1 2.5 0 0.5 0.2 0.7 0.7 0.7 1.2 0 2.3 0 3.5 0 1 0 1 0 1 1-0.2 1.5-0.3 2.9-0.5 4.4 0 0.5-0.2 0.7-0.7 0.7-1.3 0-2.5 0-3.9 0z"/>
				</g>
				<g id="&lt;Group&gt;">
					<path id="&lt;Path&gt;" class="s4" d="m-309.5 947.9l-15.7 8.7-15.7-8.7z"/>
					<path id="&lt;Path&gt;" class="s4" d="m-307.3 949.1v18.6h-35.9v-18.6l18 9.9z"/>
				</g>
				<g id="&lt;Group&gt;">
					<g id="&lt;Group&gt;">
						<path id="&lt;Compound Path&gt;" fill-rule="evenodd" class="s4" d="m-533 973.3h-17.1c-4.4 0-7.9-3.6-7.9-7.9v-15.2c0-4.4 3.5-7.9 7.9-7.9h17.1c4.4 0 7.9 3.5 7.9 7.9v15.2c0 4.3-3.5 7.9-7.9 7.9zm-17.1-28c-2.7 0-4.9 2.2-4.9 4.9v15.2c0 2.7 2.2 4.9 4.9 4.9h17.1c2.7 0 4.9-2.2 4.9-4.9v-15.2c0-2.7-2.2-4.9-4.9-4.9z"/>
						<path id="&lt;Compound Path&gt;" fill-rule="evenodd" class="s4" d="m-541.1 965.7c-4.3 0-7.9-3.5-7.9-7.9 0-4.4 3.6-8 7.9-8 4.4 0 8 3.6 8 8 0 4.4-3.6 7.9-8 7.9zm0-12.9c-2.7 0-4.9 2.3-4.9 5 0 2.7 2.2 4.9 4.9 4.9 2.8 0 5-2.2 5-4.9 0-2.7-2.2-5-5-5z"/>
						<path id="&lt;Path&gt;" class="s4" d="m-532.1 949.1c0-0.7-0.5-1.2-1.2-1.2-0.7 0-1.2 0.5-1.2 1.2 0 0.7 0.5 1.2 1.2 1.2 0.7 0 1.2-0.5 1.2-1.2z"/>
					</g>
				</g>
			</g>
		</g>
	</g>
</svg>