<?xml version="1.0" encoding="utf-8"?>
<!-- Generator: Adobe Illustrator 24.0.3, SVG Export Plug-In . SVG Version: 6.00 Build 0)  -->
<svg version="1.0" xmlns="http://www.w3.org/2000/svg" xmlns:xlink="http://www.w3.org/1999/xlink" x="0px" y="0px"
	 viewBox="0 0 470.3 516.3" style="enable-background:new 0 0 470.3 516.3;" xml:space="preserve">
<style type="text/css">
	.st0{fill:#FFFFFF;stroke:#000000;stroke-width:3.1462;stroke-miterlimit:10;}
	.st1{fill:#FFFFFF;stroke:#000000;stroke-width:3.1462;stroke-linecap:round;stroke-linejoin:round;stroke-miterlimit:10;}
	.st2{fill:#FFCF1E;stroke:#000000;stroke-width:3.1462;stroke-miterlimit:10;}
	.st3{fill:#FEF8DC;}
	.st4{fill:#FDCF22;}
	.st5{fill:#FFCF1E;stroke:#000000;stroke-width:3.1462;stroke-linecap:round;stroke-linejoin:round;stroke-miterlimit:10;}
	.st6{fill:#FFCF1E;}
	.st7{fill:#EDBA18;}
	.st8{fill:#FFCF21;}
	.st9{fill:#FDCF22;stroke:#000000;stroke-width:3.1462;stroke-miterlimit:10;}
	.st10{fill:#FDFFFF;stroke:#000000;stroke-width:3.1462;stroke-miterlimit:10;}
	.st11{fill:none;stroke:#000000;stroke-width:3.1462;stroke-linecap:round;stroke-linejoin:round;stroke-miterlimit:10;}
</style>
<g id="Layer_8">
	<path class="st0" d="M79.9,217.7c-0.3-10.9,4.3-24.7,11.8-26.4c7.5-1.7,5.1,7.6,2.6,13.2s-0.9,13.6,3.8,17.4s19.9,9.9,17.1,1.2
		c-2.7-8.8-5-14.8-0.3-16.4c4.7-1.6,13.5,3.4,13.2,17.3c-0.3,13.9-3.9,30.6-9.5,41.7c-5.6,11.1-7.2,35.1-7.3,41.5
		c0,1.4,0,2.5-0.1,3.4c-0.1,3.4-0.1,3.9-0.1,3.9s28.8-10.6,34.1-11.8c5.3-1.2,28.6,65.3,28.6,65.3s-32.2,2-42.4,3.3
		c-10.2,1.3-38.5,3.8-47.7,2.5c-9.3-1.3-40.2-1.4-34-30s15.3-44.2,18.1-49.6c2.7-5.4,9.4-25.1,8.9-28.3c-0.5-3.1-16.9-19.8-8.2-28
		c0,0,1.3-8.8,6.3-10.7c0,0-2.6-6.7,3.7-7.3L79.9,217.7z"/>
	<path class="st1" d="M109.9,337.4c0,0,1.2-15.6,1.3-22.9"/>
</g>
<g id="Layer_18">
</g>
<g id="Layer_17">
	<g>
		<path d="M92.4,251.3c-0.6,0-1.2-0.4-1.5-1c-3.2-8.5-12.1-9.5-18.6-10.2c-1.7-0.2-3.1-0.3-4.3-0.6c-0.8-0.2-1.4-1-1.2-1.9
			c0.2-0.8,1-1.4,1.9-1.2c1,0.2,2.4,0.4,4,0.6c6.9,0.8,17.3,1.9,21.2,12.2c0.3,0.8-0.1,1.7-0.9,2C92.8,251.3,92.6,251.3,92.4,251.3z
			"/>
	</g>
	<g>
		<path d="M95.8,242.2c-0.8,0-1.4-0.6-1.6-1.3c-1.4-10.1-14-11.5-18.7-12c-0.4,0-0.8-0.1-1.1-0.1c-0.9-0.1-1.5-0.9-1.4-1.8
			c0.1-0.9,0.9-1.5,1.8-1.4c0.3,0,0.6,0.1,1,0.1c4.9,0.5,19.7,2.2,21.5,14.7c0.1,0.9-0.5,1.7-1.3,1.8
			C96,242.2,95.9,242.2,95.8,242.2z"/>
	</g>
</g>
<g id="Layer_4">
	<path class="st2" d="M409.1,353.6c27.4,24.1,4.2,58.2-26.3,54.8l-1.4,0.1c-13.4,5.9-81-91.6-81-91.6l-15.3-59.5
		c0,0-31.4-39.9-6.8-58.3c6.1-4.6,11.9-7.4,17.2-8.8c15.4-4.2,27.1,2.8,33.6,8.8c8.1,7.6,10.5,26,12.6,54.4
		c5.6,27,29.4,35.4,50.7,43.8c16.5,6.6,31.5,13.2,35.3,28.7C433,344.5,409.1,353.6,409.1,353.6z"/>
	<path class="st3" d="M391.1,298.9c-49.4-1.5-56.7-33.6-58.1-40.2c-1.6-7.6-2.5-37.6-8.1-51.8c-3.6-9.3-19.5-13.3-30.5-14.5
		c14.9-5,27.3,2.6,33.3,8.1c7.6,6.9,10.5,26,12.6,54.4C345.9,281.9,369.8,290.5,391.1,298.9z"/>
</g>
<g id="Layer_19">
	<g>
		<rect x="108" y="128.4" class="st4" width="6.1" height="4.5"/>
		<path class="st4" d="M101.9,119.4h-1.5c-1.7,0-3,1.4-3,3c0,1.7,1.4,3,3,3h4.5v-3C105,120.7,103.6,119.4,101.9,119.4L101.9,119.4z"
			/>
		<rect x="108" y="136" class="st4" width="6.1" height="30.3"/>
		<path class="st4" d="M97.4,178.8c0,1.4,1.2,2.6,2.6,2.6h22.1c1.4,0,2.6-1.2,2.6-2.6l0-2H97.4L97.4,178.8z"/>
		<circle class="st4" cx="159.4" cy="60.4" r="3"/>
		<circle class="st4" cx="62.6" cy="166.3" r="9.1"/>
		<path class="st4" d="M105,186c0,1.6,1.3,2.9,2.9,2.9h6.2c1.6,0,2.9-1.3,2.9-2.9v-1.6H105V186z"/>
		<rect x="97.4" y="169.3" class="st4" width="27.2" height="4.5"/>
		<circle class="st4" cx="167" cy="139" r="6.1"/>
		<path class="st4" d="M132.6,133.4c-4.7,3.5-7.5,9-7.5,14.8v0.3c0,0.8-0.7,1.5-1.5,1.5c-0.8,0-1.5-0.7-1.5-1.5v-0.3
			c0-6.8,3.2-13.2,8.7-17.2c8.4-6.3,13.5-16.3,13.5-26.7c0-18.4-14.9-33.4-33.5-33.3c-18.2,0.1-33,15-33,33.2
			c0,10.6,4.8,20.4,13.4,26.8c5.5,4.1,8.8,10.6,8.8,17.3v0.3c0,0.8-0.7,1.5-1.5,1.5c-0.8,0-1.5-0.7-1.5-1.5v-0.3
			c0-5.8-2.8-11.3-7.5-14.9c-9.2-6.9-14.6-17.8-14.6-29.2c0-19.9,16.3-36.2,36.3-36.2c20.1,0,36.3,16.2,36.3,36.3
			C147.3,115.7,141.8,126.6,132.6,133.4L132.6,133.4z M111,55.8h-0.4c-26.4,0.2-48,21.8-48,48.3c0,15.5,7,29.7,19.5,38.9
			c7.4,5.5,12,14.2,12.3,23.2H105l0-30.2h-1.5c-0.8,0-1.5-0.7-1.5-1.5c0-0.8,0.7-1.5,1.5-1.5h1.5v-4.5h-4.5c-3.3,0-6.1-2.7-6.1-6.1
			s2.7-6.1,6.1-6.1h1.5c3.3,0,6.1,2.7,6.1,6.1v3h6.1v-3c0-3.3,2.7-6.1,6.1-6.1h1.5c3.3,0,6.1,2.7,6.1,6.1s-2.7,6.1-6.1,6.1h-4.5v4.5
			h1.5c0.8,0,1.5,0.7,1.5,1.5c0,0.8-0.7,1.5-1.5,1.5h-1.5v30.3h10.6c0.3-9.1,4.8-17.7,12.2-23.1c12.3-9.1,19.6-23.6,19.6-38.9
			C159.4,77.6,137.7,55.8,111,55.8L111,55.8z"/>
		<path class="st4" d="M124.6,122.4c0-1.7-1.4-3-3-3h-1.5c-1.7,0-3,1.4-3,3v3h4.5C123.3,125.4,124.6,124.1,124.6,122.4L124.6,122.4z
			"/>
		<path class="st4" d="M62.6,59.6c0,3-4.5,3-4.5,0C58.1,56.6,62.6,56.6,62.6,59.6"/>
		<path class="st4" d="M47.5,94.4c0,3-4.5,3-4.5,0C43,91.4,47.5,91.4,47.5,94.4"/>
		<path class="st4" d="M62.6,139.8c0,3-4.5,3-4.5,0C58.1,136.8,62.6,136.8,62.6,139.8"/>
		<path class="st4" d="M171.5,115.6c0,3-4.5,3-4.5,0C167,112.6,171.5,112.6,171.5,115.6"/>
		<path class="st4" d="M151.9,161c0,3-4.5,3-4.5,0C147.3,157.9,151.9,157.9,151.9,161"/>
		<path class="st4" d="M86.8,182.1c0,3-4.5,3-4.5,0C82.3,179.1,86.8,179.1,86.8,182.1"/>
		<path class="st4" d="M145.8,55.1c0,3-4.5,3-4.5,0C141.3,52.1,145.8,52.1,145.8,55.1"/>
	</g>
</g>
<g id="Layer_7">
	<path class="st5" d="M168.9,476c0,0,12.7-30.6,15-34.8c2.3-4.2,130.1,1.5,130.1,1.5l22.6,34.8L168.9,476z"/>
</g>
<g id="Layer_6">
	<path d="M145.1,301c0,0,54.3-12.3,56.7,8.8l70.6-0.5c0,0,59-4.4,83.4,55.4L314,442.7l-130.1-1.5c0,0-11.5-25.3-11.5-32.4
		s-38.6-12.5-12.4-53.7C160,355.1,140.4,335.2,145.1,301z"/>
</g>
<g id="Layer_15">
	<g>
		<g>
			<path d="M345.7,361.9l-0.8-1.3c-23.5-36.7-54.6-42.7-71-43c-0.5,0-0.8,0-1,0l-1.6-0.1l0.2-3l1.6,0.1c0.2,0,0.5,0,0.9,0
				c17,0.3,49.3,6.5,73.6,44.5l0.8,1.3L345.7,361.9z"/>
			<path class="st6" d="M345.7,363.4c-0.5,0-1-0.3-1.3-0.7l-0.8-1.3c-23.1-36.1-53.6-42-69.7-42.3c-0.5,0-0.9,0-1.1,0l-1.6-0.1
				c-0.4,0-0.8-0.2-1.1-0.5c-0.3-0.3-0.4-0.7-0.4-1.1l0.2-3c0.1-0.8,0.8-1.5,1.6-1.4l1.6,0.1c0.1,0,0.3,0,0.6,0l0.2,0
				c17.4,0.3,50.2,6.6,74.8,45.2l0.8,1.3c0.2,0.4,0.3,0.8,0.2,1.2c-0.1,0.4-0.4,0.8-0.7,1l-2.7,1.6
				C346.3,363.4,346,363.4,345.7,363.4z M330.4,340.2c5.5,5.3,10.8,11.7,15.8,19.5l0,0l0,0C341.2,352,335.9,345.5,330.4,340.2z"/>
		</g>
	</g>
	<g>
		<path class="st7" d="M194.2,309.3c-0.2,0-0.5-0.1-0.7-0.2c-16.1-8.3-45-1.1-45.3-1c-0.8,0.2-1.7-0.3-1.9-1.1
			c-0.2-0.8,0.3-1.7,1.1-1.9c1.2-0.3,30.4-7.6,47.5,1.3c0.8,0.4,1.1,1.3,0.7,2.1C195.3,309,194.7,309.3,194.2,309.3z"/>
	</g>
</g>
<g id="Layer_13">
	<g>
		<path class="st8" d="M192.6,419.5h115.6v-3.5h-1.6l0-7.2c0-1.8-1.5-3.3-3.4-3.3H192.6v-11.8h115.6v-3.5H192.6
			c-8.1,0-14.6,6.5-14.6,14.6C178,413,184.5,419.5,192.6,419.5L192.6,419.5z"/>
		<path class="st8" d="M301.5,423.9H185.9v3.5h115.6v11.1c-0.1,0-0.2,0-0.3,0H192.7c-1.8,0-3.4,1.5-3.4,3.3v7.9c0,0,0,0,0,0h-3.5
			v3.5h115.6c8.1,0,14.6-6.5,14.6-14.6C316.1,430.4,309.6,423.9,301.5,423.9L301.5,423.9z"/>
		<path class="st8" d="M312.7,371.1c1.8,0,3.4-1.5,3.4-3.3V360h3.5v-3.5l-115.6,0c-8.1,0-14.6,6.5-14.6,14.6
			c0,8.1,6.5,14.6,14.6,14.6l115.6,0v-3.5H203.9v-11.2L312.7,371.1z"/>
	</g>
</g>
<g id="Layer_9">
	<path class="st0" d="M190.3,419.4c-0.4-4.6,13.8-3.8,22.9,0c9.1,3.8,34.2,4.2,34.6-1.2s-10.9-13.6-10.7-15s-0.4-5.7,6.7-3.2
		c7.1,2.4,27.1,18.8,27.1,18.8l56.1-1.4c0,0-8.2-5.9-5.1-9.8c3-3.8,6.7-10.3-5.3-11.9c0,0,9.3-5.7,8.3-19l29.2-11.1
		c0,0,33.4,48.6,35.4,52.6s13.6,39.3-4.9,44.5c-18.4,5.3-50.8,2.2-67.8-1.4s-50.6-10.1-60.7-9.5C246,452.4,193.6,454.3,190.3,419.4z
		"/>
</g>
<g id="Layer_3">
	<path class="st9" d="M241.6,276.4l-52.1-53.6c0,0,0.3-7.9,4.2-17.2c4.7-10.9,14.7-23.7,35.6-27.1c17.9-2.9,33.7,3.3,45.7,12.7
		c13.8,10.8,22.5,25.9,23.4,35.8C299.9,245.5,294.8,279.7,241.6,276.4z"/>
</g>
<g id="Layer_5">
	<path class="st1" d="M207.9,267.6c0,0,19.7,50.4-10.8,36.2c0,0-10.5,36.9,21.1,35.2s54.2-28,54.2-28s-21.6,2.3-25.6-8.7
		c-4-11-7.3-46.7-7.3-46.7L207.9,267.6z"/>
</g>
<g id="Layer_20">
</g>
<g id="Layer_14">
	<path class="st3" d="M274.2,192.9c-43.7-18.9-68.3,0.6-79.4,14.4c4.6-10.9,14.3-23.7,34.8-27.1C247,177.2,262.5,183.5,274.2,192.9z
		"/>
</g>
<g id="Layer_2">
	<path class="st10" d="M223.3,193.1c-4.2,3.5-14.8,7.9-21.4,17.2c-6.7,9.3-19,9.1-19,12.3c0,3.2,2.5,6.8,3,7.4
		c0.5,0.5-5.3,14.2-3,23.5c2.3,9.3,27.7,34.1,60.1,2.5c0,0,22.7,11.8,26.3-8.3c0,0-1.4-15.3-19.7-8.4L223.3,193.1z"/>
</g>
<g id="Layer_11">
	<path class="st11" d="M79.2,219.6c3.5-0.2,13.5,3.7,16.9,6.7c3.7,3.3,5.8,10,5.2,12.2c-0.7,2.2-5.5,2.1-5.5,2.1s2.7,9.1-3.4,9.1
		c0,0-2.2,8.7-7.8,6.6c-5.6-2.1-7.1-8.1-10.2-7.5"/>
</g>
<g id="Layer_12">
</g>
<g id="Layer_10">
	<ellipse transform="matrix(0.7071 -0.7071 0.7071 0.7071 -94.9033 218.1475)" cx="215.9" cy="223.6" rx="4.6" ry="2.4"/>
	<ellipse cx="256.3" cy="246.9" rx="5.8" ry="2.2"/>
	<g>
		<path d="M229.9,225.8C229.9,225.8,229.9,225.8,229.9,225.8c-1,0-1.6-0.8-1.6-1.7c0.2-3.4-0.7-6.1-2.5-7.9
			c-3.3-3.3-8.7-3.1-8.7-3.1c-0.9,0-1.6-0.6-1.6-1.5c0-0.9,0.6-1.6,1.5-1.6c0.3,0,6.8-0.2,11.1,4.1c2.5,2.5,3.6,6,3.4,10.3
			C231.5,225.1,230.8,225.8,229.9,225.8z"/>
	</g>
	<g>
		<path d="M197.2,249.1c-1.8,0-3.8-0.2-5.9-0.5c-0.9-0.1-1.5-0.9-1.3-1.8c0.1-0.9,0.9-1.5,1.8-1.3c6.7,1,11.9,0.2,15-2.2
			c0.8-0.6,1.4-1.3,1.8-1.9c-10.1,3.5-17.8-0.6-18.2-0.8c-0.8-0.4-1.1-1.4-0.6-2.1c0.4-0.8,1.4-1,2.1-0.6c0.3,0.2,8.5,4.4,18.8-0.7
			c0.5-0.3,1.1-0.2,1.6,0.1c0.5,0.3,0.7,0.9,0.7,1.4c0,0.2-0.4,4.1-4.1,7.1C206,247.9,202.1,249.1,197.2,249.1z"/>
	</g>
</g>
<g id="Layer_16">
	<g>
		<path d="M222,433.2c-22.1,0-31.4-11.4-31.8-12c-0.5-0.7-0.4-1.7,0.3-2.2c0.7-0.5,1.7-0.4,2.2,0.3c0.1,0.2,10.6,12.8,35.5,10.5
			c0.9-0.1,1.6,0.6,1.7,1.4c0.1,0.9-0.6,1.6-1.4,1.7C226.2,433.1,224,433.2,222,433.2z"/>
	</g>
	<g>
		<path d="M223.8,442.1c-10,0-29.2-1.6-33.2-13.7c-0.3-0.8,0.2-1.7,1-2c0.8-0.3,1.7,0.2,2,1c4.6,13.8,35.6,11.4,36,11.4
			c0.9-0.1,1.6,0.6,1.7,1.4c0.1,0.9-0.6,1.6-1.4,1.7C229.4,441.9,227.1,442.1,223.8,442.1z"/>
	</g>
</g>
</svg>
