<svg width="1024" height="1024" viewBox="0 0 1024 1024" fill="none" xmlns="http://www.w3.org/2000/svg">
<g clip-path="url(#clip0_1_14)">
<path d="M0 157.703C0 70.6059 70.6058 0 157.703 0H866.297C953.394 0 1024 70.6058 1024 157.703V866.297C1024 953.394 953.394 1024 866.297 1024H157.703C70.6059 1024 0 953.394 0 866.297V157.703Z" fill="#00091F"/>
<mask id="mask0_1_14" style="mask-type:alpha" maskUnits="userSpaceOnUse" x="-39" y="-95" width="1185" height="1245">
<path d="M788.005 843.784C752.621 894.321 705.273 935.309 650.188 963.088C595.104 990.867 533.997 1004.57 472.325 1002.98C410.652 1001.39 350.334 984.549 296.756 953.965C243.177 923.381 198.007 880.005 165.277 827.71C132.547 775.415 113.277 715.829 109.188 654.272C105.098 592.715 116.316 531.103 141.84 474.938C167.364 418.772 206.4 369.802 255.461 332.399C304.523 294.997 362.084 270.326 423.003 260.589C440.357 257.842 455.6 253.009 468.216 245.195L570.262 182.181C575.436 178.989 581.431 177.381 587.508 177.557C593.585 177.733 599.478 179.684 604.459 183.17L859.487 361.743C864.482 365.228 868.346 370.1 870.599 375.758C872.852 381.417 873.396 387.611 872.164 393.575L847.765 511.034C845.032 526.852 845.383 543.05 848.799 558.734C858.355 607.894 857.897 658.476 847.451 707.455C837.005 756.433 816.787 802.801 788.005 843.784ZM938.562 303.092C933.826 309.856 926.597 314.461 918.465 315.895C910.334 317.329 901.966 315.473 895.202 310.737L640.174 132.165C633.41 127.428 628.804 120.2 627.371 112.068C625.937 103.936 627.792 95.5682 632.528 88.8044C637.264 82.0406 644.493 77.4352 652.625 76.0014C660.756 74.5676 669.124 76.4228 675.888 81.1588L703.278 66.3594C713.442 60.8523 724.939 58.2836 736.481 58.9411C748.023 59.5985 759.154 63.4562 768.627 70.082L909.607 168.797C919.073 175.433 926.505 184.573 931.07 195.194C935.636 205.815 937.154 217.497 935.456 228.932L930.917 259.732C937.68 264.468 942.286 271.697 943.72 279.828C945.153 287.96 943.298 296.328 938.562 303.092Z" fill="#0F172A"/>
</mask>
<g mask="url(#mask0_1_14)">
<path d="M193.022 26.9658C277.387 -89.0577 319.569 -147.069 375.241 -175.574C424.211 -200.648 480.167 -210.149 535.089 -202.716C597.527 -194.266 657.77 -153.645 778.256 -72.405L1040.94 104.719C1161.43 185.96 1221.67 226.58 1251.27 280.189C1277.31 327.346 1287.18 381.229 1279.46 434.117C1270.68 494.243 1228.5 552.254 1144.14 668.278L960.2 921.238C875.835 1037.26 833.652 1095.27 777.981 1123.78C729.011 1148.85 673.055 1158.35 618.133 1150.92C555.695 1142.47 495.452 1101.85 374.966 1020.61L112.277 843.484C-8.20877 762.244 -68.4517 721.624 -98.0526 668.014C-124.09 620.858 -133.957 566.975 -126.238 514.087C-117.463 453.961 -75.2803 395.949 9.08484 279.926L193.022 26.9658Z" fill="url(#paint0_radial_1_14)"/>
<path d="M193.022 26.9658C277.387 -89.0577 319.569 -147.069 375.241 -175.574C424.211 -200.648 480.167 -210.149 535.089 -202.716C597.527 -194.266 657.77 -153.645 778.256 -72.405L1040.94 104.719C1161.43 185.96 1221.67 226.58 1251.27 280.189C1277.31 327.346 1287.18 381.229 1279.46 434.117C1270.68 494.243 1228.5 552.254 1144.14 668.278L960.2 921.238C875.835 1037.26 833.652 1095.27 777.981 1123.78C729.011 1148.85 673.055 1158.35 618.133 1150.92C555.695 1142.47 495.452 1101.85 374.966 1020.61L112.277 843.484C-8.20877 762.244 -68.4517 721.624 -98.0526 668.014C-124.09 620.858 -133.957 566.975 -126.238 514.087C-117.463 453.961 -75.2803 395.949 9.08484 279.926L193.022 26.9658Z" fill="url(#paint1_radial_1_14)"/>
<path d="M193.022 26.9658C277.387 -89.0577 319.569 -147.069 375.241 -175.574C424.211 -200.648 480.167 -210.149 535.089 -202.716C597.527 -194.266 657.77 -153.645 778.256 -72.405L1040.94 104.719C1161.43 185.96 1221.67 226.58 1251.27 280.189C1277.31 327.346 1287.18 381.229 1279.46 434.117C1270.68 494.243 1228.5 552.254 1144.14 668.278L960.2 921.238C875.835 1037.26 833.652 1095.27 777.981 1123.78C729.011 1148.85 673.055 1158.35 618.133 1150.92C555.695 1142.47 495.452 1101.85 374.966 1020.61L112.277 843.484C-8.20877 762.244 -68.4517 721.624 -98.0526 668.014C-124.09 620.858 -133.957 566.975 -126.238 514.087C-117.463 453.961 -75.2803 395.949 9.08484 279.926L193.022 26.9658Z" fill="url(#paint2_radial_1_14)"/>
<path d="M193.022 26.9658C277.387 -89.0577 319.569 -147.069 375.241 -175.574C424.211 -200.648 480.167 -210.149 535.089 -202.716C597.527 -194.266 657.77 -153.645 778.256 -72.405L1040.94 104.719C1161.43 185.96 1221.67 226.58 1251.27 280.189C1277.31 327.346 1287.18 381.229 1279.46 434.117C1270.68 494.243 1228.5 552.254 1144.14 668.278L960.2 921.238C875.835 1037.26 833.652 1095.27 777.981 1123.78C729.011 1148.85 673.055 1158.35 618.133 1150.92C555.695 1142.47 495.452 1101.85 374.966 1020.61L112.277 843.484C-8.20877 762.244 -68.4517 721.624 -98.0526 668.014C-124.09 620.858 -133.957 566.975 -126.238 514.087C-117.463 453.961 -75.2803 395.949 9.08484 279.926L193.022 26.9658Z" fill="url(#paint3_radial_1_14)"/>
<path d="M193.022 26.9658C277.387 -89.0577 319.569 -147.069 375.241 -175.574C424.211 -200.648 480.167 -210.149 535.089 -202.716C597.527 -194.266 657.77 -153.645 778.256 -72.405L1040.94 104.719C1161.43 185.96 1221.67 226.58 1251.27 280.189C1277.31 327.346 1287.18 381.229 1279.46 434.117C1270.68 494.243 1228.5 552.254 1144.14 668.278L960.2 921.238C875.835 1037.26 833.652 1095.27 777.981 1123.78C729.011 1148.85 673.055 1158.35 618.133 1150.92C555.695 1142.47 495.452 1101.85 374.966 1020.61L112.277 843.484C-8.20877 762.244 -68.4517 721.624 -98.0526 668.014C-124.09 620.858 -133.957 566.975 -126.238 514.087C-117.463 453.961 -75.2803 395.949 9.08484 279.926L193.022 26.9658Z" fill="url(#paint4_radial_1_14)"/>
</g>
<path d="M354.129 25.4996C350.74 27.8221 348.187 31.1037 346.825 34.8881L311.215 137.76C295.343 183.747 257.939 219.766 210.183 235.05L103.354 269.341C99.4243 270.653 96.0164 273.112 93.6045 276.375C91.1927 279.638 89.8969 283.544 89.8969 287.55C89.8969 291.555 91.1927 295.461 93.6045 298.724C96.0164 301.988 99.4243 304.446 103.354 305.758L210.183 340.049C233.697 347.625 255.062 360.356 272.594 377.239C290.127 394.123 303.348 414.696 311.215 437.339L346.825 540.211C348.187 543.996 350.74 547.277 354.129 549.6C357.518 551.922 361.574 553.17 365.734 553.17C369.893 553.17 373.949 551.922 377.338 549.6C380.727 547.277 383.28 543.996 384.643 540.211L420.252 437.339C428.12 414.696 441.34 394.123 458.873 377.239C476.406 360.356 497.771 347.625 521.284 340.049L628.113 305.758C632.043 304.446 635.451 301.988 637.863 298.724C640.275 295.461 641.571 291.555 641.571 287.55C641.571 283.544 640.275 279.638 637.863 276.375C635.451 273.112 632.043 270.653 628.113 269.341L521.284 235.05C473.529 219.766 436.125 183.747 420.252 137.76L384.643 34.8881C383.28 31.1037 380.727 27.8221 377.338 25.4996C373.949 23.1771 369.893 21.9291 365.734 21.9291C361.574 21.9291 357.518 23.1771 354.129 25.4996Z" fill="#FFD900"/>
<path d="M715.448 592.381C713.996 593.377 712.902 594.783 712.318 596.405L697.056 640.493C690.254 660.202 674.224 675.638 653.757 682.189L607.973 696.885C606.289 697.447 604.828 698.501 603.795 699.9C602.761 701.298 602.206 702.972 602.206 704.689C602.206 706.405 602.761 708.079 603.795 709.478C604.828 710.877 606.289 711.93 607.973 712.493L653.757 727.189C663.834 730.435 672.991 735.892 680.505 743.127C688.019 750.363 693.685 759.18 697.056 768.884L712.318 812.972C712.902 814.594 713.996 816.001 715.448 816.996C716.901 817.991 718.639 818.526 720.422 818.526C722.204 818.526 723.942 817.991 725.395 816.996C726.847 816.001 727.941 814.594 728.525 812.972L743.787 768.884C747.158 759.18 752.824 750.363 760.338 743.127C767.852 735.892 777.009 730.435 787.086 727.189L832.87 712.493C834.554 711.93 836.015 710.877 837.048 709.478C838.082 708.079 838.637 706.405 838.637 704.689C838.637 702.972 838.082 701.298 837.048 699.9C836.015 698.501 834.554 697.447 832.87 696.885L787.086 682.189C766.619 675.638 750.589 660.202 743.787 640.493L728.525 596.405C727.941 594.783 726.847 593.377 725.395 592.381C723.942 591.386 722.204 590.851 720.422 590.851C718.639 590.851 716.901 591.386 715.448 592.381Z" fill="white"/>
</g>
<defs>
<radialGradient id="paint0_radial_1_14" cx="0" cy="0" r="1" gradientUnits="userSpaceOnUse" gradientTransform="translate(655.445 1011.4) rotate(81.5618) scale(668.338 709.779)">
<stop stop-color="#6375EB"/>
<stop offset="1" stop-color="#6F49E0" stop-opacity="0"/>
</radialGradient>
<radialGradient id="paint1_radial_1_14" cx="0" cy="0" r="1" gradientUnits="userSpaceOnUse" gradientTransform="translate(18.2695 575.939) rotate(172.644) scale(706.48 700.337)">
<stop stop-color="#308CFE"/>
<stop offset="1" stop-color="#2F8BFF" stop-opacity="0"/>
</radialGradient>
<radialGradient id="paint2_radial_1_14" cx="0" cy="0" r="1" gradientUnits="userSpaceOnUse" gradientTransform="translate(356.032 135.796) rotate(-92.2162) scale(590.394 624.639)">
<stop stop-color="#F928C2"/>
<stop offset="1" stop-color="#F922BC" stop-opacity="0"/>
</radialGradient>
<radialGradient id="paint3_radial_1_14" cx="0" cy="0" r="1" gradientUnits="userSpaceOnUse" gradientTransform="translate(862.011 211.56) rotate(-27.5087) scale(610.867 604.307)">
<stop stop-color="#F90700"/>
<stop offset="1" stop-color="#F90700" stop-opacity="0"/>
</radialGradient>
<radialGradient id="paint4_radial_1_14" cx="0" cy="0" r="1" gradientUnits="userSpaceOnUse" gradientTransform="translate(452.004 -126.145) rotate(-99.0002) scale(317.373 337.141)">
<stop stop-color="#FE0D88"/>
<stop offset="1" stop-color="#FE0D88" stop-opacity="0"/>
</radialGradient>
<clipPath id="clip0_1_14">
<path d="M0 157.703C0 70.6059 70.6058 0 157.703 0H866.297C953.394 0 1024 70.6058 1024 157.703V866.297C1024 953.394 953.394 1024 866.297 1024H157.703C70.6059 1024 0 953.394 0 866.297V157.703Z" fill="white"/>
</clipPath>
</defs>
</svg>
